<svg width="40" height="40" viewBox="0 0 40 40" fill="none" xmlns="http://www.w3.org/2000/svg">
<circle cx="20" cy="20" r="20" fill="#0D1B2A"/>
<path d="M20 33.5C20 33.5 31 28 31 19.75V10.125L20 6L9 10.125V19.75C9 28 20 33.5 20 33.5Z" stroke="#71A9F7" stroke-width="2.75" stroke-linecap="round" stroke-linejoin="round"/>
<path d="M21.9375 21.0234C21.9375 20.8203 21.9062 20.638 21.8438 20.4766C21.7865 20.3099 21.6771 20.1589 21.5156 20.0234C21.3542 19.8828 21.1276 19.7448 20.8359 19.6094C20.5443 19.474 20.1667 19.3333 19.7031 19.1875C19.1875 19.0208 18.6979 18.8333 18.2344 18.625C17.776 18.4167 17.3698 18.1745 17.0156 17.8984C16.6667 17.6172 16.3906 17.2917 16.1875 16.9219C15.9896 16.5521 15.8906 16.1224 15.8906 15.6328C15.8906 15.1589 15.9948 14.7292 16.2031 14.3438C16.4115 13.9531 16.7031 13.6198 17.0781 13.3438C17.4531 13.0625 17.8958 12.8464 18.4062 12.6953C18.9219 12.5443 19.487 12.4688 20.1016 12.4688C20.9401 12.4688 21.6719 12.6198 22.2969 12.9219C22.9219 13.224 23.4062 13.638 23.75 14.1641C24.099 14.6901 24.2734 15.2917 24.2734 15.9688H21.9453C21.9453 15.6354 21.875 15.3438 21.7344 15.0938C21.599 14.8385 21.3906 14.638 21.1094 14.4922C20.8333 14.3464 20.4844 14.2734 20.0625 14.2734C19.6562 14.2734 19.3177 14.3359 19.0469 14.4609C18.776 14.5807 18.5729 14.7448 18.4375 14.9531C18.3021 15.1562 18.2344 15.3854 18.2344 15.6406C18.2344 15.8333 18.2812 16.0078 18.375 16.1641C18.474 16.3203 18.6198 16.4661 18.8125 16.6016C19.0052 16.737 19.2422 16.8646 19.5234 16.9844C19.8047 17.1042 20.1302 17.2214 20.5 17.3359C21.1198 17.5234 21.6641 17.7344 22.1328 17.9688C22.6068 18.2031 23.0026 18.4661 23.3203 18.7578C23.638 19.0495 23.8776 19.3802 24.0391 19.75C24.2005 20.1198 24.2812 20.5391 24.2812 21.0078C24.2812 21.5026 24.1849 21.9453 23.9922 22.3359C23.7995 22.7266 23.5208 23.0573 23.1562 23.3281C22.7917 23.599 22.3568 23.8047 21.8516 23.9453C21.3464 24.0859 20.7812 24.1562 20.1562 24.1562C19.5938 24.1562 19.0391 24.0833 18.4922 23.9375C17.9453 23.7865 17.4479 23.5599 17 23.2578C16.5573 22.9557 16.2031 22.5703 15.9375 22.1016C15.6719 21.6328 15.5391 21.0781 15.5391 20.4375H17.8906C17.8906 20.7917 17.9453 21.0911 18.0547 21.3359C18.1641 21.5807 18.3177 21.7786 18.5156 21.9297C18.7188 22.0807 18.9583 22.1901 19.2344 22.2578C19.5156 22.3255 19.8229 22.3594 20.1562 22.3594C20.5625 22.3594 20.8958 22.3021 21.1562 22.1875C21.4219 22.0729 21.6172 21.9141 21.7422 21.7109C21.8724 21.5078 21.9375 21.2786 21.9375 21.0234Z" fill="white"/>
</svg>
