<svg width="434" height="419" viewBox="0 0 434 419" fill="none" xmlns="http://www.w3.org/2000/svg">
<path d="M278.596 210.124C235.842 209.727 197.151 209.369 169.106 209.108C155.115 209.043 143.79 208.99 135.925 208.954C132.029 208.962 128.996 208.969 126.903 208.974C125.893 208.987 125.114 208.997 124.557 209.004C124.028 209.016 123.758 209.031 123.758 209.047C123.758 209.062 124.028 209.079 124.557 209.096C125.115 209.109 125.893 209.127 126.903 209.15C128.996 209.175 132.029 209.213 135.924 209.26C143.788 209.301 155.114 209.36 169.105 209.433C197.152 209.45 235.844 209.474 278.6 209.5C321.335 209.496 360.034 209.55 388.05 209.75C402.057 209.847 413.393 209.975 421.228 210.121C425.145 210.194 428.187 210.27 430.249 210.347C432.311 210.425 433.394 210.502 433.394 210.577C433.393 210.651 432.31 210.719 430.247 210.775C428.184 210.832 425.142 210.879 421.224 210.913C413.388 210.981 402.051 210.997 388.043 210.956C360.027 210.878 321.33 210.55 278.596 210.124Z" fill="#EBEBEB"/>
<path d="M277.745 219.424C235.574 212.624 197.412 206.471 169.75 202.01C155.94 199.851 144.76 198.103 136.997 196.889C133.146 196.315 130.15 195.869 128.081 195.561C127.08 195.423 126.309 195.317 125.758 195.242C125.233 195.175 124.964 195.149 124.96 195.165C124.958 195.181 125.222 195.239 125.742 195.336C126.291 195.432 127.056 195.567 128.049 195.742C130.113 196.081 133.102 196.573 136.943 197.204C144.706 198.424 155.884 200.18 169.693 202.349C197.396 206.565 235.615 212.381 277.849 218.809C320.066 225.202 358.287 231.049 385.93 235.443C399.752 237.637 410.931 239.463 418.646 240.782C422.504 241.441 425.496 241.974 427.52 242.36C429.545 242.746 430.601 242.986 430.589 243.061C430.576 243.136 429.495 243.041 427.448 242.789C425.401 242.537 422.388 242.128 418.512 241.575C410.76 240.47 399.557 238.789 385.727 236.65C358.063 232.378 319.889 226.252 277.745 219.424Z" fill="#EBEBEB"/>
<path d="M275.391 228.481C234.858 215.362 198.179 203.49 171.591 194.885C158.306 190.657 147.551 187.233 140.082 184.856C136.373 183.704 133.487 182.809 131.494 182.191C130.528 181.904 129.785 181.682 129.252 181.523C128.744 181.378 128.483 181.312 128.477 181.328C128.472 181.343 128.724 181.441 129.221 181.616C129.747 181.795 130.481 182.044 131.434 182.368C133.417 183.017 136.287 183.956 139.977 185.163C147.444 187.546 158.195 190.978 171.478 195.216C198.147 203.584 234.939 215.129 275.596 227.886C316.243 240.605 353.032 252.18 379.612 260.716C392.904 264.982 403.643 268.482 411.047 270.958C414.749 272.195 417.616 273.175 419.553 273.865C421.489 274.555 422.493 274.954 422.468 275.026C422.444 275.098 421.391 274.841 419.41 274.282C417.429 273.723 414.52 272.862 410.783 271.728C403.308 269.461 392.52 266.101 379.211 261.889C352.59 253.47 315.893 241.625 275.391 228.481Z" fill="#EBEBEB"/>
<path d="M271.591 237.058C233.703 217.957 199.416 200.671 174.563 188.142C162.134 181.951 152.071 176.938 145.085 173.458C141.61 171.759 138.906 170.436 137.04 169.523C136.133 169.093 135.435 168.76 134.935 168.523C134.458 168.303 134.211 168.197 134.203 168.211C134.195 168.225 134.428 168.359 134.89 168.607C135.379 168.863 136.065 169.221 136.953 169.685C138.804 170.626 141.487 171.989 144.934 173.74C151.917 177.226 161.976 182.245 174.401 188.445C199.371 200.756 233.82 217.741 271.886 236.509C309.948 255.239 344.39 272.253 369.246 284.714C381.674 290.942 391.71 296.028 398.618 299.593C402.072 301.375 404.745 302.778 406.545 303.751C408.344 304.725 409.272 305.27 409.236 305.337C409.2 305.404 408.204 304.989 406.339 304.135C404.474 303.282 401.743 301.99 398.237 300.302C391.227 296.928 381.122 291.972 368.666 285.793C343.752 273.441 309.445 256.178 271.591 237.058Z" fill="#EBEBEB"/>
<path d="M266.441 244.959C232.115 220.383 201.053 198.143 178.537 182.023C167.265 174.034 158.139 167.568 151.803 163.077C148.647 160.874 146.19 159.161 144.494 157.977C143.669 157.415 143.032 156.982 142.578 156.672C142.142 156.382 141.915 156.24 141.905 156.253C141.895 156.266 142.103 156.433 142.52 156.748C142.963 157.076 143.581 157.531 144.383 158.124C146.059 159.332 148.487 161.083 151.609 163.332C157.943 167.827 167.063 174.3 178.33 182.296C200.997 198.218 232.268 220.184 266.823 244.457C301.381 268.693 332.64 290.688 355.169 306.741C366.436 314.766 375.523 321.3 381.768 325.863C384.891 328.145 387.303 329.932 388.923 331.166C390.542 332.399 391.37 333.077 391.324 333.137C391.278 333.198 390.36 332.638 388.656 331.515C386.954 330.391 384.465 328.704 381.276 326.509C374.898 322.12 365.721 315.703 354.421 307.723C331.816 291.766 300.73 269.547 266.441 244.959Z" fill="#EBEBEB"/>
<path d="M260.078 251.986C230.135 222.563 203.039 195.937 183.398 176.637C173.552 167.055 165.58 159.298 160.045 153.912C157.282 151.263 155.133 149.202 153.648 147.779C152.924 147.099 152.366 146.576 151.965 146.202C151.583 145.851 151.38 145.677 151.368 145.688C151.356 145.699 151.536 145.896 151.896 146.269C152.281 146.659 152.818 147.202 153.515 147.907C154.976 149.352 157.093 151.445 159.813 154.134C165.344 159.524 173.309 167.286 183.149 176.873C202.971 196 230.318 222.388 260.537 251.548C290.764 280.67 318.092 307.084 337.757 326.32C347.593 335.936 355.515 343.754 360.947 349.198C363.664 351.919 365.759 354.047 367.159 355.508C368.561 356.968 369.269 357.762 369.214 357.815C369.158 357.868 368.342 357.177 366.841 355.811C365.34 354.445 363.154 352.405 360.358 349.76C354.766 344.467 346.737 336.752 336.861 327.175C317.107 308.026 289.982 281.416 260.078 251.986Z" fill="#EBEBEB"/>
<path d="M252.661 257.974C227.83 224.419 205.359 194.054 189.072 172.044C180.891 161.103 174.269 152.245 169.67 146.095C167.369 143.064 165.578 140.706 164.341 139.078C163.735 138.298 163.268 137.698 162.933 137.268C162.612 136.864 162.44 136.661 162.426 136.671C162.412 136.68 162.556 136.901 162.853 137.324C163.17 137.766 163.612 138.383 164.187 139.185C165.397 140.832 167.151 143.216 169.403 146.281C173.997 152.434 180.614 161.296 188.787 172.242C205.281 194.109 228.037 224.275 253.183 257.611C278.344 290.911 301.079 321.101 317.401 343.051C325.564 354.024 332.129 362.936 336.617 369.128C338.862 372.224 340.588 374.639 341.736 376.293C342.884 377.946 343.455 378.836 343.392 378.88C343.329 378.925 342.635 378.12 341.372 376.546C340.11 374.972 338.279 372.629 335.944 369.596C331.274 363.53 324.586 354.705 316.376 343.764C299.952 321.883 277.452 291.53 252.661 257.974Z" fill="#EBEBEB"/>
<path d="M244.365 262.773C225.283 225.887 208.015 192.509 195.498 168.314C189.192 156.274 184.087 146.529 180.542 139.76C178.761 136.42 177.374 133.82 176.416 132.026C175.944 131.164 175.58 130.501 175.319 130.026C175.066 129.578 174.929 129.353 174.914 129.36C174.899 129.368 175.006 129.608 175.23 130.07C175.471 130.554 175.808 131.23 176.245 132.109C177.174 133.918 178.519 136.537 180.246 139.904C183.786 146.675 188.883 156.425 195.179 168.469C207.925 192.552 225.51 225.778 244.941 262.493C264.392 299.174 281.953 332.42 294.514 356.56C300.797 368.63 305.836 378.42 309.264 385.213C310.978 388.609 312.291 391.255 313.157 393.061C314.023 394.867 314.443 395.833 314.373 395.867C314.302 395.901 313.747 395.002 312.755 393.257C311.762 391.513 310.335 388.923 308.52 385.575C304.891 378.88 299.717 369.155 293.382 357.111C280.707 333.026 263.408 299.654 244.365 262.773Z" fill="#EBEBEB"/>
<path d="M235.39 266.259C222.566 226.938 210.962 191.356 202.55 165.564C198.287 152.719 194.837 142.319 192.441 135.098C191.226 131.529 190.281 128.752 189.628 126.834C189.301 125.912 189.05 125.202 188.869 124.693C188.693 124.213 188.595 123.969 188.578 123.974C188.562 123.979 188.628 124.232 188.774 124.723C188.933 125.238 189.156 125.957 189.444 126.891C190.065 128.818 190.965 131.609 192.121 135.196C194.512 142.419 197.954 152.82 202.206 165.669C210.863 191.386 222.807 226.864 236.005 266.069C249.228 305.244 261.144 340.738 269.609 366.484C273.845 379.355 277.221 389.788 279.498 397.016C280.636 400.63 281.5 403.443 282.06 405.358C282.621 407.273 282.877 408.291 282.802 408.313C282.727 408.336 282.325 407.364 281.629 405.491C280.934 403.618 279.946 400.843 278.7 397.263C276.208 390.101 272.686 379.712 268.395 366.858C259.812 341.149 248.175 305.569 235.39 266.259Z" fill="#EBEBEB"/>
<path d="M225.956 268.339C219.709 227.564 214.055 190.664 209.957 163.917C207.844 150.584 206.134 139.791 204.947 132.297C204.33 128.588 203.85 125.702 203.519 123.71C203.347 122.75 203.215 122.011 203.12 121.481C203.025 120.98 202.967 120.724 202.951 120.727C202.935 120.73 202.959 120.99 203.023 121.496C203.096 122.029 203.198 122.772 203.331 123.738C203.63 125.736 204.063 128.628 204.62 132.346C205.802 139.842 207.504 150.636 209.606 163.969C213.957 190.678 219.961 227.527 226.595 268.245C233.258 308.938 239.232 345.798 243.389 372.506C245.471 385.859 247.103 396.675 248.172 404.158C248.707 407.9 249.1 410.808 249.341 412.784C249.582 414.76 249.67 415.804 249.592 415.815C249.515 415.827 249.276 414.805 248.895 412.85C248.514 410.895 247.993 408.005 247.348 404.28C246.056 396.829 244.274 386.036 242.135 372.69C237.851 346 232.167 309.098 225.956 268.339Z" fill="#EBEBEB"/>
<path d="M216.297 268.971C216.682 227.755 217.031 190.457 217.283 163.421C217.342 149.935 217.39 139.016 217.423 131.435C217.412 127.679 217.403 124.756 217.396 122.738C217.382 121.764 217.371 121.014 217.363 120.476C217.349 119.967 217.335 119.706 217.319 119.706C217.303 119.706 217.285 119.967 217.267 120.476C217.254 121.013 217.236 121.763 217.213 122.737C217.188 124.754 217.152 127.677 217.105 131.433C217.068 139.015 217.013 149.933 216.946 163.42C216.945 190.457 216.944 227.756 216.943 268.973C216.975 310.17 216.942 347.477 216.752 374.483C216.66 387.987 216.534 398.916 216.387 406.468C216.314 410.245 216.237 413.177 216.158 415.165C216.078 417.152 215.999 418.196 215.922 418.196C215.844 418.196 215.774 417.152 215.714 415.163C215.654 413.174 215.604 410.241 215.567 406.465C215.491 398.911 215.467 387.981 215.502 374.478C215.565 347.472 215.881 310.167 216.297 268.971Z" fill="#EBEBEB"/>
<path d="M206.65 268.156C213.677 227.499 220.036 190.707 224.646 164.037C226.877 150.723 228.683 139.944 229.937 132.46C230.529 128.747 230.99 125.858 231.309 123.864C231.451 122.899 231.56 122.157 231.639 121.625C231.708 121.119 231.734 120.859 231.718 120.857C231.701 120.854 231.642 121.109 231.541 121.609C231.442 122.138 231.302 122.876 231.121 123.835C230.771 125.824 230.262 128.706 229.61 132.408C228.351 139.892 226.536 150.67 224.294 163.982C219.937 190.691 213.928 227.538 207.287 268.255C200.682 308.958 194.641 345.806 190.1 372.457C187.832 385.783 185.946 396.56 184.582 403.998C183.9 407.717 183.35 410.602 182.951 412.555C182.551 414.507 182.303 415.526 182.225 415.513C182.148 415.501 182.246 414.459 182.506 412.485C182.766 410.511 183.188 407.606 183.759 403.869C184.901 396.396 186.637 385.596 188.848 372.261C193.263 345.592 199.593 308.788 206.65 268.156Z" fill="#EBEBEB"/>
<path d="M197.252 265.893C210.835 226.811 223.128 191.444 232.037 165.808C236.415 152.999 239.959 142.628 242.42 135.427C243.612 131.852 244.539 129.068 245.179 127.147C245.476 126.216 245.705 125.499 245.869 124.985C246.02 124.496 246.088 124.243 246.072 124.238C246.056 124.233 245.955 124.476 245.774 124.955C245.589 125.462 245.33 126.171 244.995 127.089C244.323 129.001 243.351 131.769 242.101 135.326C239.634 142.526 236.081 152.893 231.693 165.699C223.029 191.414 211.077 226.889 197.87 266.091C184.7 305.283 172.717 340.756 163.879 366.384C159.463 379.2 155.838 389.555 153.275 396.694C151.994 400.263 150.978 403.028 150.265 404.895C149.551 406.762 149.138 407.73 149.062 407.706C148.987 407.683 149.253 406.667 149.831 404.758C150.41 402.848 151.3 400.043 152.474 396.439C154.821 389.232 158.3 378.831 162.661 365.998C171.38 340.329 183.644 304.946 197.252 265.893Z" fill="#EBEBEB"/>
<path d="M188.352 262.236C208.142 225.699 226.052 192.635 239.033 168.669C245.448 156.683 250.642 146.98 254.247 140.242C256.008 136.891 257.378 134.283 258.324 132.484C258.771 131.61 259.114 130.936 259.36 130.454C259.589 129.995 259.698 129.756 259.683 129.748C259.668 129.741 259.529 129.965 259.273 130.411C259.008 130.883 258.637 131.544 258.156 132.401C257.181 134.186 255.769 136.772 253.954 140.097C250.343 146.831 245.142 156.531 238.718 168.513C225.964 192.591 208.367 225.811 188.921 262.519C169.515 299.223 151.888 332.434 138.978 356.404C132.524 368.39 127.256 378.067 123.562 384.728C121.715 388.06 120.262 390.637 119.254 392.372C118.245 394.108 117.68 395.002 117.612 394.967C117.542 394.933 117.972 393.971 118.856 392.174C119.74 390.376 121.079 387.742 122.827 384.362C126.323 377.601 131.457 367.857 137.859 355.847C150.657 331.823 168.543 298.739 188.352 262.236Z" fill="#EBEBEB"/>
<path d="M180.154 257.276C205.626 224.171 228.677 194.212 245.385 172.498C253.665 161.626 260.367 152.825 265.022 146.714C267.305 143.67 269.081 141.302 270.308 139.666C270.89 138.87 271.338 138.257 271.661 137.817C271.96 137.398 272.107 137.178 272.094 137.168C272.081 137.159 271.907 137.36 271.581 137.761C271.242 138.188 270.77 138.784 270.156 139.557C268.903 141.175 267.09 143.517 264.759 146.526C260.099 152.634 253.391 161.431 245.103 172.297C228.601 194.158 205.833 224.317 180.675 257.645C155.556 290.974 132.76 321.121 116.121 342.85C107.804 353.716 101.031 362.48 96.3012 368.503C93.9364 371.514 92.0835 373.841 90.8054 375.403C89.5274 376.965 88.8243 377.763 88.762 377.719C88.6988 377.674 89.2791 376.79 90.4441 375.146C91.6082 373.504 93.3579 371.103 95.6319 368.029C100.181 361.878 106.833 353.027 115.102 342.128C131.64 320.328 154.669 290.346 180.154 257.276Z" fill="#EBEBEB"/>
<path d="M172.861 251.147C203.364 222.264 230.967 196.125 250.975 177.18C260.908 167.682 268.95 159.993 274.534 154.653C277.28 151.989 279.417 149.915 280.893 148.483C281.597 147.785 282.139 147.246 282.527 146.861C282.891 146.491 283.072 146.296 283.06 146.285C283.048 146.274 282.844 146.446 282.457 146.794C282.053 147.165 281.491 147.683 280.759 148.356C279.261 149.765 277.091 151.807 274.303 154.431C268.716 159.766 260.669 167.45 250.729 176.941C230.899 196.061 203.544 222.44 173.314 251.589C143.122 280.746 115.74 307.107 95.7975 326.077C85.8286 335.563 77.7233 343.205 72.0799 348.446C69.2586 351.066 67.0522 353.087 65.5384 354.439C64.0245 355.791 63.2012 356.473 63.146 356.42C63.0908 356.367 63.8073 355.58 65.2224 354.132C66.6375 352.685 68.753 350.576 71.496 347.879C76.982 342.485 84.9804 334.739 94.9084 325.213C114.764 306.157 142.35 279.993 172.861 251.147Z" fill="#EBEBEB"/>
<path d="M166.644 244C201.436 220.042 232.922 198.361 255.743 182.647C267.088 174.754 276.272 168.364 282.649 163.927C285.791 161.707 288.236 159.979 289.925 158.785C290.733 158.2 291.355 157.75 291.801 157.427C292.221 157.116 292.431 156.951 292.421 156.938C292.411 156.925 292.182 157.065 291.744 157.35C291.285 157.657 290.646 158.084 289.815 158.638C288.107 159.806 285.635 161.497 282.457 163.671C276.077 168.104 266.888 174.488 255.538 182.373C232.866 198.287 201.586 220.244 167.022 244.505C132.495 268.781 101.192 290.716 78.4318 306.465C67.0532 314.341 57.8141 320.676 51.3936 325.006C48.1834 327.171 45.6781 328.836 43.9639 329.944C42.2498 331.052 41.3268 331.604 41.2806 331.542C41.2352 331.481 42.0691 330.811 43.7014 329.592C45.3327 328.374 47.7624 326.608 50.9077 324.356C57.1973 319.85 66.3474 313.398 77.6922 305.476C100.378 289.629 131.851 267.92 166.644 244Z" fill="#EBEBEB"/>
<path d="M161.66 236.006C199.911 217.588 234.525 200.92 259.615 188.838C272.1 182.752 282.208 177.825 289.227 174.403C292.691 172.683 295.386 171.345 297.246 170.421C298.14 169.965 298.827 169.614 299.32 169.362C299.785 169.118 300.019 168.986 300.011 168.971C300.003 168.956 299.754 169.06 299.275 169.276C298.773 169.509 298.071 169.834 297.16 170.256C295.285 171.152 292.568 172.449 289.076 174.117C282.055 177.534 271.945 182.453 259.455 188.531C234.481 200.833 200.026 217.806 161.951 236.561C123.912 255.336 89.4368 272.284 64.4029 284.409C51.8868 290.473 41.7337 295.336 34.6893 298.645C31.1676 300.3 28.4228 301.567 26.5503 302.403C24.6777 303.239 23.6765 303.644 23.6409 303.577C23.6053 303.509 24.538 302.973 26.3474 302.015C28.1567 301.057 30.8428 299.679 34.3138 297.928C41.2558 294.425 51.3403 289.431 63.8306 283.317C88.8076 271.084 123.414 254.386 161.66 236.006Z" fill="#EBEBEB"/>
<path d="M158.04 227.356C198.819 214.969 235.723 203.759 262.473 195.634C275.796 191.516 286.581 188.183 294.071 185.869C297.772 184.695 300.652 183.783 302.641 183.152C303.597 182.837 304.333 182.594 304.861 182.42C305.36 182.25 305.612 182.155 305.607 182.139C305.602 182.124 305.339 182.188 304.83 182.328C304.296 182.482 303.55 182.697 302.582 182.975C300.583 183.576 297.689 184.445 293.968 185.562C286.477 187.871 275.689 191.196 262.363 195.303C235.691 203.665 198.896 215.201 158.235 227.948C117.606 240.721 80.7948 252.23 54.0939 260.407C40.7439 264.498 29.9242 267.76 22.4268 269.96C18.6781 271.059 15.7616 271.894 13.776 272.435C11.7895 272.976 10.7349 273.224 10.7109 273.152C10.6868 273.08 11.6952 272.691 13.6381 272.019C15.581 271.347 18.4583 270.394 22.1723 269.191C29.6002 266.784 40.3737 263.382 53.7059 259.238C80.3685 250.946 117.27 239.706 158.04 227.356Z" fill="#EBEBEB"/>
<path d="M155.875 218.263C198.169 212.214 236.443 206.741 264.186 202.775C278.014 200.73 289.21 199.075 296.983 197.926C300.83 197.329 303.823 196.864 305.89 196.543C306.886 196.377 307.652 196.249 308.202 196.158C308.722 196.065 308.987 196.01 308.985 195.994C308.982 195.978 308.712 196.002 308.187 196.064C307.634 196.135 306.863 196.233 305.861 196.362C303.789 196.652 300.789 197.071 296.933 197.611C289.158 198.755 277.962 200.402 264.131 202.437C236.427 206.649 198.207 212.459 155.973 218.879C113.765 225.329 75.5331 231.11 47.8301 235.135C33.979 237.149 22.7606 238.73 14.9989 239.766C11.1176 240.283 8.10136 240.665 6.05169 240.898C4.00202 241.131 2.91978 241.217 2.90732 241.142C2.89575 241.067 3.95485 240.837 5.98316 240.469C8.01147 240.101 11.0081 239.595 14.8725 238.97C22.6004 237.721 33.7957 235.995 47.6378 233.925C75.3213 229.779 113.598 224.275 155.875 218.263Z" fill="#EBEBEB"/>
<path d="M155.213 208.954C197.969 209.299 236.66 209.611 264.704 209.838C278.695 209.887 290.021 209.926 297.886 209.953C301.783 209.94 304.814 209.929 306.907 209.922C307.917 209.907 308.696 209.896 309.253 209.888C309.782 209.875 310.053 209.861 310.053 209.845C310.053 209.83 309.782 209.813 309.253 209.797C308.696 209.784 307.917 209.767 306.907 209.745C304.814 209.723 301.782 209.69 297.886 209.646C290.021 209.615 278.695 209.569 264.704 209.512C236.659 209.529 197.966 209.55 155.209 209.576C112.474 209.631 73.7745 209.623 45.7591 209.456C31.7514 209.376 20.4145 209.262 12.5799 209.125C8.66209 209.057 5.62096 208.984 3.55883 208.909C1.4967 208.834 0.413574 208.758 0.413574 208.684C0.413574 208.61 1.49759 208.541 3.55972 208.482C5.62274 208.423 8.66476 208.372 12.5825 208.334C20.4181 208.257 31.7558 208.227 45.7635 208.252C73.7816 208.295 112.48 208.578 155.213 208.954Z" fill="#EBEBEB"/>
<path d="M156.052 199.652C198.232 206.4 236.402 212.507 264.07 216.933C277.883 219.075 289.065 220.81 296.83 222.014C300.682 222.583 303.678 223.026 305.748 223.332C306.748 223.469 307.519 223.573 308.071 223.649C308.596 223.715 308.866 223.74 308.868 223.724C308.871 223.709 308.606 223.651 308.087 223.555C307.538 223.459 306.773 223.325 305.778 223.151C303.714 222.814 300.724 222.326 296.883 221.7C289.119 220.49 277.939 218.748 264.127 216.596C236.418 212.414 198.191 206.644 155.949 200.268C113.723 193.927 75.494 188.126 47.8461 183.766C34.0209 181.589 22.8407 179.776 15.1235 178.467C11.2644 177.813 8.27226 177.284 6.24662 176.9C4.22098 176.517 3.16455 176.277 3.17612 176.202C3.18858 176.128 4.27082 176.222 6.31782 176.47C8.36571 176.719 11.3792 177.125 15.2552 177.673C23.008 178.768 34.2131 180.436 48.0472 182.558C75.7173 186.796 113.899 192.875 156.052 199.652Z" fill="#EBEBEB"/>
<path d="M158.394 190.591C198.944 203.661 235.64 215.487 262.239 224.06C275.529 228.273 286.289 231.682 293.761 234.051C297.471 235.196 300.359 236.088 302.352 236.704C303.318 236.99 304.062 237.21 304.595 237.369C305.102 237.513 305.365 237.579 305.37 237.564C305.376 237.548 305.124 237.45 304.627 237.276C304.1 237.098 303.366 236.849 302.413 236.527C300.429 235.88 297.557 234.944 293.866 233.742C286.396 231.368 275.64 227.95 262.353 223.728C235.673 215.392 198.865 203.893 158.191 191.186C117.527 178.517 80.7218 166.987 54.1313 158.483C40.8347 154.234 30.0906 150.746 22.684 148.281C18.9807 147.048 16.1113 146.071 14.1747 145.384C12.2381 144.696 11.2324 144.3 11.2573 144.226C11.2822 144.154 12.3351 144.41 14.3171 144.966C16.2982 145.522 19.2085 146.38 22.9474 147.508C30.4252 149.766 41.2174 153.113 54.5326 157.309C81.1623 165.697 117.875 177.498 158.394 190.591Z" fill="#EBEBEB"/>
<path d="M162.183 182.01C200.097 201.064 234.406 218.308 259.275 230.807C271.712 236.983 281.781 241.983 288.773 245.455C292.25 247.151 294.956 248.47 296.823 249.381C297.731 249.811 298.428 250.141 298.929 250.379C299.406 250.599 299.654 250.704 299.662 250.689C299.67 250.675 299.437 250.541 298.974 250.293C298.484 250.039 297.799 249.681 296.91 249.218C295.057 248.279 292.373 246.92 288.924 245.173C281.935 241.696 271.87 236.688 259.437 230.504C234.452 218.223 199.981 201.28 161.889 182.559C123.801 163.875 89.3389 146.903 64.4669 134.472C52.0301 128.259 41.9873 123.186 35.0747 119.629C31.6188 117.851 28.9444 116.452 27.143 115.48C25.3417 114.508 24.4134 113.965 24.449 113.898C24.4846 113.831 25.4823 114.245 27.3477 115.096C29.2132 115.947 31.9463 117.236 35.4538 118.919C42.4688 122.284 52.5801 127.228 65.0437 133.392C89.9735 145.715 124.303 162.936 162.183 182.01Z" fill="#EBEBEB"/>
<path d="M167.322 174.103C201.68 198.637 232.771 220.84 255.308 236.932C266.591 244.906 275.724 251.363 282.067 255.846C285.227 258.044 287.685 259.755 289.381 260.936C290.208 261.497 290.845 261.93 291.3 262.238C291.736 262.528 291.963 262.669 291.974 262.656C291.984 262.643 291.776 262.476 291.359 262.162C290.916 261.836 290.297 261.38 289.494 260.789C287.815 259.582 285.385 257.835 282.261 255.59C275.922 251.102 266.792 244.641 255.515 236.659C232.827 220.764 201.528 198.836 166.941 174.604C132.351 150.41 101.064 128.454 78.5138 112.428C67.2366 104.417 58.1408 97.8929 51.8903 93.3376C48.7646 91.0599 46.3501 89.2747 44.7285 88.0445C43.1069 86.8134 42.2783 86.1366 42.3246 86.0757C42.3709 86.0148 43.2894 86.5733 44.9937 87.6948C46.6981 88.8162 49.1892 90.5014 52.3807 92.692C58.7638 97.0734 67.9495 103.48 79.2605 111.446C101.887 127.375 133.002 149.556 167.322 174.103Z" fill="#EBEBEB"/>
<path d="M173.676 167.068C203.657 196.455 230.788 223.048 250.454 242.324C260.312 251.893 268.294 259.641 273.836 265.02C276.602 267.666 278.754 269.724 280.24 271.146C280.966 271.824 281.525 272.346 281.925 272.72C282.309 273.072 282.512 273.245 282.523 273.234C282.535 273.222 282.356 273.026 281.995 272.653C281.609 272.264 281.072 271.721 280.374 271.018C278.911 269.574 276.792 267.484 274.068 264.798C268.53 259.415 260.554 251.663 250.702 242.087C230.855 222.983 203.474 196.628 173.219 167.506C142.954 138.42 115.59 112.039 95.9 92.8269C86.0521 83.223 78.1205 75.4147 72.6799 69.9781C69.96 67.2593 67.8623 65.1348 66.4597 63.6758C65.057 62.2168 64.3477 61.4242 64.4029 61.3712C64.4581 61.3181 65.2751 62.008 66.7774 63.3713C68.2797 64.7346 70.4691 66.773 73.2682 69.4152C78.8672 74.7004 86.9065 82.406 96.7953 91.9708C116.576 111.097 143.734 137.674 173.676 167.068Z" fill="#EBEBEB"/>
<path d="M181.086 161.071C205.961 194.596 228.471 224.934 244.787 246.925C252.982 257.856 259.616 266.705 264.223 272.85C266.529 275.878 268.322 278.234 269.561 279.861C270.169 280.64 270.636 281.239 270.972 281.669C271.294 282.073 271.466 282.275 271.479 282.266C271.493 282.256 271.347 282.035 271.051 281.613C270.733 281.171 270.29 280.555 269.714 279.754C268.502 278.109 266.746 275.726 264.489 272.665C259.887 266.516 253.259 257.663 245.072 246.726C228.549 224.88 205.754 194.74 180.563 161.436C155.359 128.166 132.585 98.0043 116.234 76.0733C108.056 65.1096 101.48 56.2069 96.984 50.0203C94.7359 46.9274 93.0075 44.5132 91.8567 42.8619C90.7059 41.2107 90.1337 40.3207 90.1969 40.2772C90.26 40.2328 90.956 41.0367 92.2207 42.6088C93.4854 44.1809 95.3188 46.522 97.6577 49.5522C102.336 55.6118 109.035 64.4292 117.259 75.3608C133.712 97.2187 156.251 127.545 181.086 161.071Z" fill="#EBEBEB"/>
<path d="M189.375 156.261C208.505 193.123 225.818 226.481 238.366 250.661C244.687 262.693 249.805 272.432 253.359 279.197C255.145 282.535 256.535 285.133 257.494 286.926C257.969 287.786 258.333 288.449 258.594 288.924C258.847 289.371 258.984 289.597 258.999 289.59C259.015 289.583 258.907 289.343 258.683 288.881C258.441 288.396 258.102 287.72 257.664 286.843C256.734 285.035 255.386 282.417 253.654 279.053C250.106 272.287 244.995 262.543 238.683 250.507C225.905 226.439 208.277 193.235 188.797 156.544C169.298 119.886 151.694 86.6621 139.1 62.537C132.802 50.4753 127.75 40.6904 124.313 33.9027C122.594 30.5088 121.278 27.864 120.41 26.0588C119.543 24.2535 119.121 23.2887 119.191 23.2547C119.261 23.2208 119.819 24.1187 120.813 25.8621C121.807 27.6056 123.239 30.1939 125.057 33.539C128.695 40.2293 133.881 49.9481 140.233 61.9837C152.941 86.0531 170.284 119.404 189.375 156.261Z" fill="#EBEBEB"/>
<path d="M198.345 152.765C211.221 192.07 222.873 227.638 231.319 253.419C235.598 266.26 239.063 276.654 241.468 283.874C242.688 287.441 243.637 290.217 244.292 292.133C244.62 293.055 244.873 293.765 245.053 294.274C245.23 294.754 245.329 294.997 245.345 294.992C245.361 294.987 245.294 294.734 245.148 294.244C244.988 293.729 244.765 293.01 244.476 292.077C243.852 290.151 242.948 287.361 241.787 283.775C239.387 276.555 235.931 266.158 231.661 253.314C222.97 227.608 210.98 192.144 197.73 152.956C184.455 113.797 172.491 78.3179 163.993 52.5833C159.74 39.7169 156.35 29.2873 154.063 22.0628C152.919 18.4506 152.053 15.6388 151.49 13.7248C150.928 11.8108 150.67 10.7937 150.744 10.7702C150.819 10.7467 151.223 11.7185 151.921 13.5908C152.619 15.463 153.609 18.2366 154.861 21.8158C157.361 28.9741 160.898 39.3584 165.205 52.2083C173.825 77.9047 185.509 113.47 198.345 152.765Z" fill="#EBEBEB"/>
<path d="M207.777 150.673C214.078 191.441 219.78 228.334 223.912 255.075C226.042 268.405 227.767 279.196 228.964 286.689C229.586 290.397 230.069 293.282 230.403 295.274C230.576 296.234 230.709 296.973 230.804 297.503C230.9 298.004 230.958 298.26 230.974 298.257C230.991 298.255 230.966 297.995 230.902 297.488C230.828 296.956 230.725 296.212 230.591 295.246C230.289 293.249 229.852 290.357 229.289 286.64C228.098 279.146 226.382 268.354 224.262 255.023C219.876 228.319 213.824 191.478 207.137 150.767C200.421 110.082 194.399 73.2301 190.206 46.5272C188.107 33.1762 186.46 22.363 185.381 14.881C184.842 11.14 184.444 8.23244 184.2 6.25667C183.956 4.2809 183.867 3.23777 183.945 3.22646C184.022 3.21515 184.263 4.23566 184.645 6.19142C185.028 8.14631 185.554 11.0356 186.205 14.76C187.506 22.209 189.303 33.0005 191.459 46.3428C195.779 73.0266 201.513 109.922 207.777 150.673Z" fill="#EBEBEB"/>
<path d="M217.433 150.029C217.102 191.245 216.802 228.543 216.585 255.58C216.543 269.066 216.51 279.985 216.486 287.567C216.503 291.323 216.515 294.246 216.524 296.263C216.54 297.238 216.552 297.988 216.561 298.525C216.574 299.035 216.59 299.296 216.606 299.296C216.622 299.296 216.639 299.035 216.657 298.526C216.669 297.989 216.686 297.239 216.709 296.265C216.731 294.248 216.764 291.324 216.806 287.569C216.833 279.987 216.873 269.069 216.923 255.582C216.888 228.546 216.84 191.246 216.788 150.029C216.703 108.831 216.688 71.5249 216.842 44.5175C216.917 31.0134 217.029 20.0853 217.165 12.5329C217.234 8.75618 217.307 5.82428 217.383 3.83633C217.46 1.84838 217.538 0.804382 217.615 0.804382C217.692 0.804382 217.764 1.84925 217.826 3.83807C217.89 5.82689 217.943 8.75966 217.986 12.5363C218.071 20.0897 218.109 31.0186 218.093 44.5227C218.064 71.5275 217.796 108.833 217.433 150.029Z" fill="#EBEBEB"/>
<path d="M227.082 150.832C220.109 191.498 213.799 228.299 209.225 254.973C207.012 268.29 205.22 279.071 203.976 286.558C203.388 290.271 202.931 293.16 202.615 295.155C202.475 296.12 202.366 296.863 202.289 297.395C202.221 297.901 202.194 298.161 202.211 298.163C202.228 298.166 202.288 297.911 202.387 297.41C202.486 296.881 202.625 296.142 202.805 295.184C203.153 293.194 203.657 290.312 204.305 286.608C205.554 279.123 207.355 268.343 209.578 255.027C213.898 228.313 219.859 191.459 226.446 150.733C232.996 110.023 238.989 73.1666 243.494 46.5107C245.744 33.1823 247.616 22.403 248.97 14.9628C249.646 11.2426 250.193 8.35684 250.59 6.40456C250.987 4.45228 251.234 3.43265 251.312 3.44483C251.389 3.45701 251.293 4.49927 251.036 6.4733C250.779 8.44733 250.36 11.3523 249.794 15.0898C248.663 22.5648 246.94 33.3667 244.747 46.7038C240.366 73.3798 234.085 110.192 227.082 150.832Z" fill="#EBEBEB"/>
<path d="M236.483 153.083C222.952 192.182 210.707 227.565 201.831 253.212C197.47 266.027 193.941 276.401 191.489 283.606C190.302 287.183 189.378 289.967 188.741 291.89C188.445 292.821 188.217 293.538 188.053 294.053C187.904 294.542 187.835 294.795 187.852 294.8C187.868 294.805 187.97 294.562 188.149 294.083C188.334 293.575 188.591 292.868 188.925 291.948C189.595 290.035 190.564 287.266 191.809 283.707C194.266 276.505 197.805 266.133 202.177 253.322C210.806 227.597 222.711 192.106 235.866 152.888C248.982 113.68 260.918 78.1918 269.722 52.5529C274.122 39.7325 277.732 29.3717 280.286 22.2307C281.562 18.6594 282.574 15.8937 283.285 14.0258C283.997 12.1579 284.408 11.1896 284.483 11.2131C284.559 11.2366 284.293 12.2518 283.718 14.1624C283.142 16.0729 282.254 18.8786 281.086 22.4839C278.749 29.6945 275.284 40.1005 270.94 52.9383C262.256 78.6154 250.039 114.014 236.483 153.083Z" fill="#EBEBEB"/>
<path d="M245.388 156.73C225.646 193.291 207.781 226.377 194.831 250.359C188.432 262.352 183.252 272.063 179.655 278.804C177.898 282.157 176.532 284.766 175.589 286.567C175.144 287.442 174.801 288.116 174.555 288.598C174.328 289.058 174.218 289.297 174.233 289.304C174.248 289.312 174.387 289.087 174.643 288.641C174.908 288.168 175.277 287.508 175.757 286.651C176.729 284.864 178.138 282.275 179.948 278.949C183.55 272.21 188.738 262.504 195.146 250.514C207.868 226.42 225.422 193.179 244.817 156.447C264.175 119.718 281.758 86.4846 294.636 62.4996C301.073 50.5057 306.329 40.8218 310.014 34.1558C311.857 30.8229 313.307 28.2433 314.313 26.5068C315.32 24.7703 315.883 23.8751 315.952 23.909C316.022 23.9438 315.593 24.9051 314.712 26.7043C313.83 28.5035 312.495 31.1387 310.751 34.5212C307.264 41.2864 302.143 51.0364 295.757 63.0555C282.99 87.0971 265.149 120.202 245.388 156.73Z" fill="#EBEBEB"/>
<path d="M253.592 161.68C228.164 194.816 205.153 224.802 188.473 246.538C180.208 257.42 173.517 266.229 168.871 272.346C166.593 275.393 164.819 277.764 163.595 279.401C163.013 280.198 162.565 280.811 162.245 281.251C161.945 281.672 161.799 281.892 161.812 281.901C161.826 281.911 161.999 281.71 162.324 281.308C162.662 280.881 163.135 280.284 163.747 279.51C164.998 277.892 166.809 275.547 169.135 272.534C173.786 266.42 180.484 257.615 188.757 246.739C205.231 224.857 227.958 194.67 253.072 161.312C278.147 127.952 300.903 97.7772 317.513 76.0281C325.816 65.1522 332.578 56.3791 337.299 50.3509C339.66 47.3363 341.51 45.0074 342.786 43.444C344.062 41.8797 344.763 41.081 344.827 41.1254C344.889 41.1698 344.31 42.0554 343.148 43.6997C341.986 45.3432 340.24 47.7461 337.969 50.8242C333.428 56.9803 326.789 65.8395 318.532 76.7484C302.024 98.5698 279.034 128.58 253.592 161.68Z" fill="#EBEBEB"/>
<path d="M260.894 167.801C230.43 196.721 202.861 222.893 182.878 241.863C172.957 251.373 164.926 259.072 159.349 264.418C156.606 267.086 154.472 269.162 152.999 270.596C152.296 271.295 151.754 271.835 151.366 272.221C151.002 272.591 150.822 272.786 150.833 272.798C150.845 272.809 151.049 272.637 151.435 272.288C151.838 271.916 152.401 271.398 153.131 270.724C154.627 269.313 156.795 267.269 159.579 264.641C165.16 259.299 173.196 251.605 183.123 242.101C202.927 222.957 230.248 196.545 260.439 167.359C290.593 138.165 317.941 111.77 337.857 92.7764C347.813 83.2778 355.909 75.6253 361.545 70.3783C364.364 67.7544 366.567 65.7316 368.08 64.3779C369.592 63.0242 370.414 62.3404 370.468 62.3934C370.524 62.4465 369.808 63.2347 368.395 64.6841C366.981 66.1336 364.868 68.245 362.129 70.9447C356.65 76.3447 348.662 84.1008 338.746 93.6386C318.919 112.719 291.367 138.917 260.894 167.801Z" fill="#EBEBEB"/>
<path d="M267.12 174.94C232.359 198.941 200.903 220.66 178.102 236.403C166.768 244.31 157.593 250.711 151.22 255.156C148.08 257.38 145.637 259.111 143.951 260.306C143.143 260.893 142.522 261.343 142.076 261.667C141.657 261.978 141.447 262.144 141.457 262.157C141.467 262.17 141.696 262.03 142.134 261.743C142.592 261.437 143.231 261.009 144.061 260.453C145.767 259.283 148.237 257.589 151.413 255.412C157.788 250.971 166.967 244.576 178.308 236.677C200.959 220.734 232.21 198.741 266.742 174.435C301.237 150.117 332.511 128.144 355.25 112.367C366.618 104.477 375.849 98.1313 382.264 93.7935C385.471 91.6237 387.974 89.9559 389.686 88.8458C391.398 87.7357 392.321 87.1832 392.367 87.2441C392.412 87.305 391.579 87.9766 389.949 89.1964C388.318 90.4161 385.891 92.1857 382.749 94.4416C376.466 98.9552 367.324 105.418 355.99 113.354C333.325 129.229 301.881 150.978 267.12 174.94Z" fill="#EBEBEB"/>
<path d="M272.115 182.928C233.889 201.393 199.297 218.103 174.223 230.216C161.746 236.319 151.645 241.258 144.631 244.688C141.17 246.412 138.476 247.754 136.617 248.68C135.724 249.138 135.037 249.49 134.545 249.742C134.08 249.986 133.846 250.119 133.854 250.132C133.862 250.147 134.11 250.044 134.589 249.827C135.091 249.593 135.792 249.268 136.703 248.844C138.577 247.946 141.293 246.645 144.781 244.973C151.798 241.547 161.902 236.615 174.384 230.522C199.342 218.189 233.774 201.174 271.824 182.372C309.838 163.55 344.29 146.559 369.308 134.403C381.816 128.323 391.963 123.447 399.002 120.13C402.522 118.471 405.264 117.201 407.136 116.363C409.008 115.525 410.009 115.119 410.044 115.186C410.08 115.254 409.148 115.791 407.34 116.751C405.533 117.711 402.848 119.092 399.379 120.848C392.442 124.359 382.363 129.365 369.882 135.495C344.92 147.76 310.336 164.5 272.115 182.928Z" fill="#EBEBEB"/>
<path d="M275.748 191.573C234.984 204.01 198.095 215.265 171.356 223.424C158.039 227.559 147.257 230.905 139.772 233.228C136.072 234.406 133.193 235.323 131.205 235.956C130.25 236.273 129.513 236.516 128.986 236.69C128.488 236.861 128.235 236.956 128.241 236.972C128.246 236.988 128.509 236.923 129.017 236.782C129.551 236.627 130.296 236.413 131.264 236.132C133.262 235.53 136.156 234.657 139.874 233.535C147.362 231.218 158.146 227.879 171.466 223.755C198.126 215.36 234.906 203.778 275.55 190.98C316.163 178.157 352.959 166.602 379.649 158.393C392.994 154.285 403.809 151.009 411.303 148.801C415.05 147.697 417.965 146.858 419.951 146.315C421.936 145.771 422.99 145.522 423.015 145.594C423.039 145.666 422.031 146.056 420.09 146.73C418.148 147.404 415.271 148.362 411.559 149.569C404.135 151.985 393.365 155.401 380.039 159.561C353.387 167.886 316.501 179.172 275.748 191.573Z" fill="#EBEBEB"/>
<path d="M277.924 200.663C235.638 206.764 197.371 212.284 169.634 216.285C155.808 218.347 144.615 220.017 136.843 221.175C132.997 221.777 130.004 222.245 127.937 222.569C126.941 222.736 126.175 222.865 125.626 222.958C125.106 223.051 124.841 223.107 124.844 223.122C124.846 223.139 125.116 223.115 125.641 223.052C126.194 222.981 126.965 222.881 127.967 222.751C130.038 222.459 133.038 222.035 136.893 221.491C144.666 220.338 155.861 218.676 169.688 216.624C197.387 212.379 235.599 206.521 277.825 200.049C320.024 193.548 358.249 187.72 385.946 183.66C399.795 181.628 411.011 180.034 418.771 178.989C422.652 178.466 425.668 178.081 427.718 177.845C429.767 177.609 430.849 177.522 430.861 177.597C430.874 177.672 429.814 177.904 427.786 178.274C425.759 178.645 422.762 179.154 418.899 179.783C411.173 181.041 399.979 182.781 386.14 184.868C358.461 189.048 320.192 194.599 277.924 200.663Z" fill="#EBEBEB"/>
<path d="M333.208 315.117C328.172 309.325 321.207 305.837 316.366 304.506C311.834 303.258 304.962 302.122 297.966 303.79C293.621 304.826 289.815 306.827 286.655 309.739C282.913 313.187 280.055 317.943 278.162 323.873C277.878 324.763 277.973 325.704 278.428 326.525C278.886 327.35 279.647 327.945 280.571 328.199L292.456 331.47C294.133 331.931 295.927 331.104 296.629 329.547C298.205 326.049 302.183 320.522 311.121 322.82C317.931 324.574 319.344 330.135 319.636 332.447C320.112 336.208 318.597 340.097 315.583 342.847C310.952 347.074 304.91 346.254 301.721 345.389C298.052 344.393 294.234 346.481 293.209 350.042L289.608 362.544C289.082 364.37 290.175 366.273 292.043 366.787L303.622 369.973C305.491 370.487 307.437 369.42 307.963 367.594L308.719 364.967C308.737 364.905 308.793 364.861 308.862 364.857C311.745 364.678 317.455 363.904 323.316 360.713C330.799 356.64 335.875 350.121 338.405 341.339C342.024 328.772 337.576 320.142 333.208 315.117Z" fill="#71A9F7"/>
<path d="M297.503 371.686L296.49 371.408C291.647 370.075 286.598 372.842 285.235 377.577C283.872 382.312 286.703 387.247 291.546 388.579L292.559 388.857C297.401 390.19 302.451 387.423 303.814 382.688C305.176 377.954 302.346 373.019 297.503 371.686Z" fill="#71A9F7"/>
<path d="M358.73 245.875C355.233 244.002 351.244 243.58 348.676 243.809C346.271 244.024 342.767 244.711 339.73 246.762C337.843 248.037 336.396 249.677 335.428 251.637C334.283 253.959 333.806 256.748 334.01 259.926C334.042 260.403 334.263 260.837 334.635 261.148C335.009 261.462 335.485 261.61 335.976 261.566L342.28 261.003C343.17 260.924 343.874 260.207 343.918 259.335C344.017 257.378 344.886 254.019 349.597 253.519C353.187 253.138 354.906 255.548 355.479 256.603C356.412 258.318 356.415 260.452 355.488 262.309C354.063 265.163 351.016 265.852 349.326 266.009C347.383 266.189 345.945 267.874 346.122 269.762L346.741 276.394C346.832 277.363 347.711 278.079 348.702 277.991L354.845 277.443C355.835 277.354 356.568 276.494 356.477 275.526L356.347 274.132C356.343 274.099 356.362 274.068 356.394 274.054C357.741 273.453 360.33 272.058 362.539 269.48C365.359 266.189 366.568 262.158 366.133 257.5C365.511 250.834 361.764 247.499 358.73 245.875Z" fill="#71A9F7"/>
<path d="M352.236 279.359L351.698 279.407C349.13 279.637 347.231 281.866 347.465 284.377C347.7 286.889 349.98 288.745 352.549 288.516L353.087 288.468C355.655 288.238 357.555 286.01 357.32 283.498C357.085 280.986 354.804 279.13 352.236 279.359Z" fill="#71A9F7"/>
<path d="M106.253 104.292C103.884 102.01 100.781 100.782 98.6677 100.393C96.6884 100.03 93.7166 99.7991 90.801 100.768C88.9898 101.37 87.4457 102.364 86.2122 103.721C84.7508 105.329 83.7175 107.46 83.1408 110.056C83.0544 110.446 83.131 110.844 83.357 111.177C83.584 111.512 83.9311 111.736 84.3351 111.811L89.5256 112.765C90.2581 112.9 90.9906 112.481 91.2291 111.791C91.7649 110.243 93.2467 107.741 97.1431 108.389C100.112 108.885 100.929 111.202 101.144 112.176C101.492 113.761 100.997 115.473 99.8194 116.756C98.01 118.729 95.4041 118.602 94.0112 118.351C92.4101 118.063 90.8642 119.093 90.5651 120.649L89.5149 126.108C89.3619 126.905 89.9003 127.676 90.7156 127.825L95.7725 128.754C96.5878 128.904 97.3763 128.378 97.5294 127.581L97.7501 126.434C97.7555 126.406 97.7777 126.386 97.8062 126.382C99.0273 126.199 101.43 125.658 103.804 124.083C106.834 122.07 108.745 119.106 109.482 115.271C110.538 109.782 108.309 106.271 106.253 104.292Z" fill="#71A9F7"/>
<path d="M93.2306 129.711L92.7883 129.63C90.6737 129.242 88.6293 130.608 88.2315 132.675C87.8337 134.742 89.231 136.74 91.3456 137.129L91.7879 137.21C93.9026 137.599 95.9469 136.233 96.3447 134.166C96.7417 132.099 95.3453 130.1 93.2306 129.711Z" fill="#71A9F7"/>
<path d="M349.338 106.035C345.848 104.15 341.861 103.712 339.293 103.932C336.887 104.137 333.38 104.809 330.335 106.85C328.443 108.116 326.989 109.751 326.014 111.708C324.859 114.025 324.37 116.812 324.562 119.992C324.591 120.469 324.811 120.904 325.182 121.217C325.555 121.532 326.03 121.681 326.52 121.64L332.827 121.101C333.717 121.025 334.423 120.311 334.471 119.439C334.578 117.482 335.461 114.127 340.174 113.644C343.766 113.278 345.475 115.695 346.043 116.752C346.969 118.471 346.964 120.605 346.029 122.458C344.593 125.307 341.543 125.983 339.852 126.134C337.908 126.307 336.463 127.985 336.632 129.875L337.225 136.509C337.311 137.478 338.188 138.197 339.18 138.112L345.324 137.588C346.316 137.503 347.051 136.646 346.964 135.677L346.84 134.283C346.837 134.25 346.856 134.219 346.888 134.205C348.237 133.609 350.832 132.225 353.052 129.656C355.885 126.376 357.11 122.349 356.694 117.69C356.099 111.021 352.365 107.671 349.338 106.035Z" fill="#71A9F7"/>
<path d="M342.707 139.495L342.17 139.541C339.6 139.76 337.692 141.982 337.917 144.494C338.141 147.007 340.414 148.872 342.984 148.652L343.522 148.606C346.091 148.387 347.999 146.165 347.775 143.652C347.551 141.141 345.278 139.275 342.707 139.495Z" fill="#71A9F7"/>
<path d="M159.721 306.513C155.354 304.502 150.501 304.28 147.416 304.741C144.526 305.174 140.344 306.256 136.828 308.955C134.643 310.631 133.018 312.717 131.998 315.155C130.788 318.044 130.421 321.449 130.909 325.275C130.982 325.849 131.283 326.358 131.756 326.708C132.232 327.06 132.818 327.205 133.407 327.116L140.984 325.982C142.053 325.822 142.849 324.905 142.838 323.848C142.81 321.476 143.608 317.354 149.263 316.41C153.573 315.692 155.832 318.481 156.604 319.714C157.861 321.72 158.026 324.298 157.045 326.61C155.538 330.161 151.907 331.214 149.877 331.525C147.542 331.884 145.932 334.021 146.287 336.292L147.536 344.261C147.718 345.425 148.835 346.227 150.026 346.049L157.408 344.944C158.599 344.766 159.418 343.674 159.237 342.51L158.974 340.835C158.968 340.795 158.989 340.756 159.026 340.737C160.608 339.913 163.633 338.042 166.108 334.767C169.267 330.587 170.424 325.628 169.547 320.03C168.29 312.018 163.51 308.257 159.721 306.513Z" fill="#71A9F7"/>
<path d="M154.397 347.446L153.751 347.543C150.663 348.005 148.536 350.837 149.01 353.854C149.483 356.871 152.379 358.951 155.466 358.488L156.112 358.392C159.199 357.93 161.326 355.099 160.853 352.081C160.38 349.064 157.483 346.984 154.397 347.446Z" fill="#71A9F7"/>
<path d="M93.2841 155.703C87.1431 152.889 80.3248 152.587 75.9905 153.244C71.9321 153.859 66.0581 155.389 61.1248 159.189C58.0606 161.549 55.7831 164.484 54.3546 167.912C52.6627 171.973 52.1572 176.758 52.8514 182.133C52.9555 182.94 53.3792 183.654 54.0449 184.144C54.7133 184.636 55.5374 184.839 56.3651 184.714L67.0068 183.102C68.5083 182.875 69.6252 181.583 69.6056 180.099C69.5603 176.765 70.6701 170.973 78.6124 169.632C84.6662 168.613 87.8471 172.526 88.9356 174.256C90.7067 177.072 90.9443 180.693 89.5728 183.944C87.4644 188.937 82.3665 190.424 79.514 190.867C76.2344 191.376 73.9782 194.384 74.4837 197.573L76.2584 208.767C76.5174 210.402 78.0891 211.526 79.7614 211.273L90.1299 209.703C91.8022 209.45 92.9521 207.913 92.6931 206.278L92.3202 203.927C92.3113 203.87 92.3398 203.816 92.3923 203.788C94.6138 202.627 98.8573 199.991 102.326 195.384C106.755 189.503 108.368 182.534 107.122 174.671C105.337 163.416 98.6116 158.144 93.2841 155.703Z" fill="#71A9F7"/>
<path d="M85.9086 213.225L85.0017 213.363C80.6656 214.02 77.6841 218.002 78.356 222.241C79.028 226.48 83.1024 229.394 87.4385 228.737L88.3454 228.6C92.6815 227.943 95.663 223.96 94.991 219.722C94.3191 215.483 90.2447 212.568 85.9086 213.225Z" fill="#71A9F7"/>
<path d="M243.169 84.802L251.191 86.1088C255.134 90.7163 260.532 94.2424 267.007 95.9267C282.277 99.8991 298.434 91.7029 303.932 77.2217C310.286 60.489 300.583 42.0111 282.803 37.3983C267.71 33.4825 251.74 41.4299 246.077 55.6562C243.268 62.7162 243.35 70.1103 245.704 76.6649L245.694 76.651L243.169 84.802Z" fill="white"/>
<path d="M243.169 84.802C243.169 84.802 243.21 84.6315 243.311 84.2835C243.419 83.9172 243.572 83.3987 243.771 82.7253C244.192 81.3211 244.807 79.2732 245.601 76.6249L245.657 76.4413L245.769 76.5988L245.778 76.6127L245.612 76.6954C244.33 73.1545 243.239 68.1032 244.151 62.1446C244.593 59.1797 245.566 56.0416 247.134 52.9287C248.728 49.8315 250.999 46.8074 253.937 44.1852C256.884 41.5787 260.507 39.3993 264.606 37.9795C268.696 36.5684 273.274 35.8628 277.924 36.3491C282.566 36.7954 287.248 38.3066 291.443 40.8348C295.66 43.3396 299.26 47.0092 301.839 51.3453C303.202 53.5116 304.113 55.8867 304.89 58.254C305.068 58.8517 305.182 59.4641 305.331 60.0662C305.452 60.6734 305.654 61.265 305.707 61.881C305.782 62.4926 305.858 63.1025 305.934 63.7106L306.041 64.6215L306.056 65.5359C306.238 70.4079 305.173 75.165 303.239 79.3602C301.32 83.5797 298.345 87.1162 295.003 89.8741C291.644 92.632 287.848 94.5869 284.025 95.7466C280.194 96.8942 276.35 97.2648 272.793 97.0273C271.908 96.9263 271.038 96.8272 270.181 96.7297C269.329 96.6123 268.509 96.3922 267.695 96.2329C266.07 95.8884 264.554 95.3664 263.132 94.8053C257.421 92.5128 253.547 89.0215 251.119 86.167L251.175 86.1975C248.591 85.7538 246.583 85.4093 245.203 85.1718C244.542 85.0552 244.035 84.9656 243.674 84.9021C243.333 84.8394 243.169 84.802 243.169 84.802C243.169 84.802 243.36 84.8229 243.714 84.8742C244.082 84.929 244.599 85.0065 245.271 85.1074C246.643 85.3188 248.637 85.6259 251.205 86.0209L251.238 86.0261L251.26 86.0522C253.706 88.8649 257.574 92.2979 263.244 94.5373C264.655 95.0854 266.159 95.5952 267.769 95.9285C268.577 96.0816 269.388 96.2965 270.232 96.4087C271.079 96.5018 271.941 96.5957 272.817 96.6923C276.334 96.9124 280.131 96.5322 283.911 95.3873C287.683 94.2302 291.426 92.2901 294.734 89.5609C298.024 86.8326 300.951 83.3413 302.835 79.1801C304.736 75.0424 305.78 70.3522 305.597 65.5533L305.582 64.652L305.475 63.7541C305.4 63.1556 305.326 62.5544 305.251 61.9523C305.199 61.346 304.998 60.7631 304.879 60.1654C304.732 59.5729 304.619 58.9691 304.445 58.3801C303.676 56.0485 302.781 53.7091 301.436 51.575C298.896 47.3033 295.352 43.6867 291.2 41.2168C287.068 38.7233 282.454 37.2287 277.881 36.7824C273.299 36.296 268.783 36.9842 264.745 38.3675C260.698 39.7595 257.114 41.9015 254.196 44.4671C251.287 47.0484 249.031 50.0281 247.443 53.0836C245.879 56.1547 244.9 59.2571 244.446 62.1907C243.511 68.0858 244.554 73.104 245.789 76.6362L246.014 77.2809L245.623 76.7188L245.613 76.7049L245.78 76.6797C244.947 79.2914 244.303 81.3107 243.86 82.6949C243.641 83.3735 243.472 83.8937 243.352 84.2626C243.238 84.6141 243.169 84.802 243.169 84.802Z" fill="#263238"/>
<path d="M281.477 52.7034C279.104 51.1652 276.29 50.631 274.449 50.6432C272.725 50.6545 270.189 50.9373 267.901 52.2188C266.48 53.0148 265.35 54.0971 264.541 55.4352C263.582 57.0203 263.071 58.9769 263.022 61.2511C263.015 61.5922 263.146 61.9141 263.392 62.1577C263.638 62.4021 263.968 62.5361 264.32 62.5335L268.841 62.5031C269.479 62.4987 270.024 62.0298 270.109 61.4121C270.3 60.0244 271.126 57.6859 274.509 57.6058C277.087 57.5467 278.162 59.3624 278.506 60.1462C279.064 61.4225 278.935 62.9407 278.161 64.2083C276.971 66.1553 274.76 66.4668 273.548 66.479C272.155 66.4929 271.028 67.6073 271.038 68.9619L271.071 73.7182C271.075 74.4125 271.657 74.9736 272.368 74.9693L276.774 74.9397C277.484 74.9353 278.058 74.3664 278.053 73.6712L278.046 72.6716C278.046 72.6472 278.061 72.6264 278.085 72.6185C279.081 72.2697 281.008 71.4301 282.739 69.7249C284.948 67.5482 286.056 64.7511 286.033 61.4103C285.998 56.6314 283.536 54.0371 281.477 52.7034Z" fill="#71A9F7"/>
<path d="M274.796 76.1516L274.411 76.1542C272.568 76.1664 271.079 77.6419 271.092 79.4428C271.104 81.2437 272.614 82.6992 274.456 82.6871L274.841 82.6844C276.684 82.6723 278.173 81.1967 278.16 79.3958C278.148 77.5949 276.638 76.1394 274.796 76.1516Z" fill="#71A9F7"/>
<path d="M287.074 124.02C266.06 110.203 241.075 105.281 224.7 105.281C209.364 105.281 186.796 107.646 166.368 118.909C153.682 125.904 143.56 135.461 136.283 147.315C127.663 161.355 122.998 178.727 122.416 198.95C122.329 201.984 123.476 204.855 125.645 207.036C127.825 209.228 130.747 210.434 133.874 210.434H174.085C179.759 210.434 184.637 206.296 185.43 200.809C187.214 188.483 194.698 167.728 224.79 167.221C247.713 166.836 257.172 183.058 260.175 190.052C265.062 201.432 263.823 214.929 256.859 226.154C246.159 243.399 226.474 246.039 215.694 246.077C203.296 246.122 193.209 255.961 193.209 268.009V310.307C193.209 316.484 198.35 321.509 204.669 321.509H243.846C250.165 321.509 255.306 316.484 255.306 310.307V301.42C255.306 301.207 255.442 301.022 255.652 300.95C264.527 297.906 281.73 290.551 297.225 275.491C317.006 256.267 327.036 231.454 327.036 201.742C327.036 159.22 305.304 136.007 287.074 124.02Z" fill="#71A9F7"/>
<path d="M223.272 341.24H226.434C241.993 341.24 254.652 353.614 254.652 368.823C254.652 384.032 241.993 396.406 226.434 396.406H223.272C207.713 396.406 195.055 384.032 195.055 368.823C195.055 353.613 207.713 341.24 223.272 341.24Z" fill="#415A77"/>
<path d="M204.518 329.688H243.68C249.996 329.688 255.135 324.822 255.135 318.841V301.548C255.135 301.342 255.271 301.162 255.481 301.093C260.11 299.555 266.587 296.734 273.914 292.331C248.893 292.16 203.285 291.91 193.062 292.274V318.841C193.063 324.822 198.202 329.688 204.518 329.688Z" fill="#415A77"/>
<path d="M236.773 138.074L211.642 66.733C206.335 48.8702 191.277 37.0007 173.157 42.6818L171.514 43.3022C154.979 49.547 146.114 67.1541 151.153 83.7676C155.841 99.2249 161.223 116.245 164.504 124.249C171.295 140.818 189.072 136.167 189.072 136.167C189.111 136.154 193.029 147.211 194.742 152.174L203.947 161.064L207.749 157.004L236.773 138.074Z" fill="#FFBF9D"/>
<path d="M189.071 136.167C189.071 136.167 200.049 132.729 208.714 121.383C208.714 121.383 208.326 135.915 190.738 140.834L189.071 136.167Z" fill="#FF9A6C"/>
<path d="M163.448 95.0332C163.899 96.306 165.373 96.982 166.741 96.5462C168.107 96.1112 168.852 94.7287 168.401 93.4559C167.951 92.1831 166.476 91.5054 165.11 91.9404C163.742 92.3754 162.998 93.7604 163.448 95.0332Z" fill="#263238"/>
<path d="M157.4 88.945C157.824 89.1407 159.139 87.1119 161.76 86.1305C164.362 85.1126 166.804 85.7042 166.963 85.2831C167.047 85.0917 166.52 84.648 165.448 84.3688C164.391 84.0878 162.759 84.0408 161.131 84.6637C159.504 85.2884 158.365 86.3924 157.814 87.2911C157.248 88.1985 157.196 88.8623 157.4 88.945Z" fill="#263238"/>
<path d="M185.332 86.5507C185.756 86.7465 187.075 84.7176 189.693 83.7363C192.295 82.7192 194.736 83.31 194.896 82.8889C194.98 82.6975 194.456 82.2538 193.381 81.9754C192.323 81.6935 190.691 81.6474 189.063 82.2695C187.436 82.895 186.297 83.999 185.745 84.8969C185.182 85.8043 185.13 86.4681 185.332 86.5507Z" fill="#263238"/>
<path d="M181.671 103.054C181.626 102.904 179.89 103.243 177.124 103.909C176.429 104.094 175.745 104.204 175.456 103.8C175.112 103.388 175.113 102.578 175.137 101.695C175.14 99.8765 175.143 97.9703 175.146 95.9737C175.092 87.854 174.777 81.2803 174.442 81.2846C174.108 81.2907 173.881 87.8749 173.935 95.9946C173.965 97.9912 173.991 99.8939 174.02 101.714C174.061 102.552 173.958 103.558 174.686 104.409C175.059 104.829 175.69 104.998 176.163 104.949C176.642 104.916 177.021 104.781 177.359 104.675C180.068 103.813 181.718 103.203 181.671 103.054Z" fill="#263238"/>
<path d="M179.28 72.1662C179.894 72.6847 182.161 71.0386 185.227 69.8067C188.268 68.513 191.056 68.0685 191.103 67.2768C191.113 66.9044 190.359 66.5129 189.061 66.3954C187.774 66.2736 185.95 66.4859 184.118 67.242C182.288 68.0006 180.862 69.1325 180.054 70.1208C179.237 71.1126 178.998 71.9139 179.28 72.1662Z" fill="#263238"/>
<path d="M154.306 81.4682C155.074 81.8545 156.988 80.4746 159.555 79.5159C162.091 78.4832 164.462 78.1909 164.733 77.3974C164.841 77.0216 164.277 76.5605 163.115 76.3508C161.966 76.1386 160.225 76.256 158.471 76.939C156.717 77.6245 155.383 78.7085 154.713 79.6299C154.029 80.5599 153.957 81.2698 154.306 81.4682Z" fill="#263238"/>
<path d="M214.843 78.779C215.084 78.5467 225.208 70.976 229.335 82.4983C233.461 94.0206 220.777 95.6936 220.637 95.3708C220.499 95.0472 214.843 78.779 214.843 78.779Z" fill="#FFBF9D"/>
<path d="M222.675 89.7732C222.713 89.7184 222.931 89.8428 223.334 89.8802C223.726 89.9159 224.346 89.8211 224.88 89.3852C225.965 88.5126 226.322 86.221 225.634 84.1243C225.289 83.0655 224.706 82.1442 224.031 81.4473C223.368 80.7278 222.6 80.3294 221.934 80.4355C221.259 80.5086 220.947 81.0271 220.919 81.4003C220.877 81.7762 221.034 81.9806 220.978 82.0224C220.956 82.0624 220.656 81.9154 220.58 81.4073C220.547 81.1611 220.587 80.8427 220.786 80.5268C220.988 80.2049 221.362 79.9483 221.815 79.8448C222.746 79.5951 223.857 80.1327 224.6 80.8966C225.394 81.6483 226.074 82.6757 226.462 83.865C227.218 86.2123 226.781 88.8014 225.249 89.8663C224.495 90.3622 223.717 90.3535 223.262 90.2039C222.795 90.0438 222.641 89.808 222.675 89.7732Z" fill="#FF9A6C"/>
<path d="M190.567 101.892C190.152 102.003 191.057 104.662 189.375 107.311C187.699 109.964 184.698 110.613 184.804 110.992C184.823 111.172 185.626 111.298 186.861 110.93C188.075 110.578 189.699 109.627 190.728 108.008C191.752 106.385 191.834 104.641 191.554 103.521C191.277 102.376 190.748 101.817 190.567 101.892Z" fill="#263238"/>
<path d="M121.721 75.6757C121.664 74.9336 121.968 74.2011 122.458 73.6312C123.527 72.3871 125.119 71.9556 126.612 71.4145C130.329 70.0686 133.699 67.857 136.436 65.0556C135.067 64.8799 133.729 64.5545 132.483 63.9725C129.91 62.7719 127.791 60.3054 127.766 57.5188C127.762 56.9959 127.863 56.4113 128.293 56.0998C128.976 55.6066 129.91 56.1103 130.653 56.5096C133.098 57.8216 135.015 58.0861 137.539 56.9263C139.107 56.206 140.553 55.3073 141.551 54.0893C141.583 54.0197 141.608 53.9466 141.641 53.8779C142.03 53.0488 142.416 52.2527 142.799 51.4793C142.799 51.4767 142.801 51.4749 142.801 51.4723L142.8 51.4767C145.683 45.6538 148.421 41.3647 151.788 38.4693C156.723 34.2254 166.011 29.9955 172.561 29.4683C179.112 28.9411 186.211 31.8416 189.209 37.5593C191.57 33.6217 196.627 31.9069 201.303 32.1052L201.391 32.0261C206.525 32.0443 210.814 35.8628 213.799 39.9457C213.962 40.1693 214.117 40.399 214.276 40.6252C216.68 42.4843 219.514 43.8094 222.526 44.3714C223.058 44.4706 223.674 44.6037 223.906 45.0813C224.136 45.5546 223.859 46.1079 223.551 46.5377C222.733 47.68 221.641 48.6213 220.4 49.3086C221.207 50.2456 222.074 51.1269 223.042 51.9212C223.864 52.5964 224.843 53.4063 224.713 54.4477C224.613 55.2533 223.823 55.8423 223.008 55.9989C222.194 56.1547 221.355 55.972 220.546 55.791C221.484 56.8063 222.421 57.8224 223.359 58.8377C221.811 59.6869 220.055 60.1462 218.281 60.2228C218.844 64.8085 220.955 72.9343 220.874 76.2021C217.767 77.3322 216.887 77.2617 215.494 78.317C213.693 79.6812 215.743 82.9428 212.728 82.8541C211.192 82.8088 207.314 78.5171 206.376 77.327C200.157 69.4317 195.713 60.2106 193.432 50.4997C190.834 49.1816 187.973 48.3586 185.058 48.0889L185.327 48.1985C179.921 48.222 173.893 48.49 170.121 52.2745C167.194 55.2098 166.407 59.5233 164.79 63.3052C161.728 70.4731 157.088 75.3329 149.714 78.2274C150.871 83.5431 153.667 91.9256 155.123 96.7567L147.557 88.6892L147.568 88.7283C147.032 88.2872 146.554 87.8218 146.084 87.352L145.931 87.2128L145.924 87.191C145.175 86.435 144.445 85.6703 143.587 84.963C143.576 84.9821 143.566 85.0004 143.555 85.0195C141.743 88.1924 136.619 86.06 137.697 82.5818C137.911 81.8919 138.226 81.2341 138.644 80.6365C137.84 82.1529 136.238 83.2987 134.492 83.3683C132.746 83.4379 130.961 82.2999 130.52 80.6469C130.218 79.5185 130.667 78.2631 131.523 77.481C129.457 78.3718 127.122 78.6685 124.899 78.2735C123.44 78.0134 121.848 77.3104 121.721 75.6757Z" fill="#0D1B2A"/>
<path d="M184.481 41.362C184.463 41.4177 185.364 41.5587 186.768 42.3121C188.16 43.0638 189.967 44.5845 191.431 46.9962C192.167 48.1915 192.856 49.5748 193.414 51.1269C193.98 52.6764 194.452 54.3825 194.962 56.1755C195.477 57.9669 196.016 59.8609 196.825 61.7461C197.229 62.6866 197.7 63.6236 198.265 64.5275C198.827 65.4123 199.461 66.3658 200.501 66.9366C201.334 67.4055 202.428 67.3646 203.221 66.8983C204.029 66.4528 204.634 65.7403 204.975 64.9356C205.628 63.2887 205.326 61.5878 205.091 60.0792L204.745 60.2463C205.794 61.3138 206.854 62.3612 208.115 63.0546C209.362 63.7593 210.827 64.0047 212.112 63.6845C212.751 63.5253 213.342 63.2138 213.779 62.7684C214.229 62.323 214.466 61.747 214.568 61.1893C214.655 60.6273 214.603 60.061 214.395 59.5694C214.186 59.0796 213.815 58.6733 213.369 58.4497L213.244 58.6724C215.106 59.6947 216.796 60.007 217.926 60.1132C218.496 60.1654 218.934 60.1619 219.231 60.154C219.526 60.1393 219.677 60.1236 219.677 60.1123C219.677 60.0992 219.523 60.0923 219.231 60.0836C218.937 60.0697 218.502 60.0496 217.941 59.9774C216.829 59.8313 215.177 59.4833 213.374 58.4532L213.248 58.675C214.045 59.0761 214.458 60.1192 214.265 61.1398C214.165 61.6452 213.944 62.1611 213.544 62.5448C213.151 62.9363 212.613 63.2173 212.026 63.3565C210.843 63.6393 209.475 63.4061 208.301 62.7319C207.108 62.0654 206.079 61.0449 205.036 59.9731L204.594 59.5181L204.69 60.141C204.924 61.6487 205.185 63.2904 204.584 64.7798C204.28 65.5011 203.722 66.1475 203.015 66.5355C202.311 66.9383 201.425 66.9696 200.703 66.5703C199.798 66.0796 199.177 65.1835 198.625 64.3118C198.074 63.4305 197.61 62.5144 197.21 61.5895C196.41 59.7382 195.865 57.859 195.341 56.0729C194.822 54.2833 194.336 52.5746 193.747 51.0103C193.167 49.4443 192.451 48.0471 191.687 46.8422C190.167 44.4123 188.288 42.8898 186.847 42.1711C185.393 41.4473 184.481 41.362 184.481 41.362Z" fill="#455A64"/>
<path d="M137.062 76.1281C137.059 76.1342 137.12 76.1577 137.241 76.1951C137.387 76.2377 137.565 76.2899 137.783 76.3535C138.02 76.4265 138.317 76.5048 138.678 76.5596C139.036 76.624 139.448 76.7102 139.921 76.738C141.79 76.9303 144.624 76.785 147.768 75.4939C150.885 74.2237 154.304 71.8086 156.819 68.1546C159.391 64.5476 161.127 59.94 162.127 55.0054C162.646 52.5329 162.913 50.089 163.343 47.7696C163.766 45.4511 164.358 43.2386 165.347 41.3125C166.315 39.3845 167.655 37.7455 169.252 36.6545C170.041 36.0942 170.91 35.7297 171.765 35.4574C172.631 35.2085 173.498 35.0989 174.326 35.0815C175.988 35.0572 177.476 35.4469 178.682 35.9594C179.896 36.4779 180.825 37.1469 181.517 37.7559C182.859 39.0348 183.262 40.0144 183.318 39.9761C183.325 39.9727 183.298 39.9152 183.24 39.8039C183.167 39.6716 183.08 39.5116 182.972 39.3158C182.726 38.8939 182.291 38.3084 181.632 37.6385C180.946 36.9999 180.011 36.2969 178.779 35.7453C177.554 35.2007 176.035 34.7796 174.322 34.7857C173.469 34.7944 172.573 34.898 171.671 35.1476C170.782 35.42 169.869 35.7967 169.048 36.37C167.384 37.4879 165.994 39.1731 164.993 41.1402C163.971 43.1081 163.362 45.3614 162.931 47.6965C162.492 50.0351 162.222 52.4737 161.707 54.9236C160.716 59.8217 159.008 64.3736 156.494 67.9362C154.035 71.5467 150.705 73.9331 147.65 75.2225C144.571 76.5275 141.788 76.7162 139.935 76.5762C138.067 76.4291 137.075 76.069 137.062 76.1281Z" fill="#455A64"/>
<path d="M132.823 69.2629C132.818 69.2917 133.091 69.3639 133.593 69.4709C134.093 69.5866 134.834 69.6875 135.751 69.7493C136.67 69.818 137.772 69.7989 138.986 69.6814C140.197 69.5431 141.52 69.2943 142.865 68.8854C144.207 68.4617 145.435 67.9205 146.507 67.3524C147.569 66.7643 148.48 66.1614 149.191 65.5881C149.905 65.0208 150.451 64.5223 150.792 64.1456C151.14 63.775 151.32 63.5627 151.299 63.5427C151.241 63.487 150.461 64.2944 149.006 65.354C148.283 65.89 147.37 66.4563 146.318 67.014C145.257 67.5525 144.05 68.0719 142.734 68.4869C141.415 68.8871 140.123 69.142 138.938 69.2995C137.749 69.4352 136.669 69.4848 135.763 69.4543C133.95 69.4065 132.838 69.1855 132.823 69.2629Z" fill="#455A64"/>
<path d="M165.102 189.861C164.948 189.904 166.965 199.78 168.941 210.025H169.566C167.59 199.78 165.257 189.817 165.102 189.861Z" fill="#263238"/>
<path d="M173.629 210.52C179.341 210.52 184.599 206.497 185.397 201.017C187.193 188.709 194.378 167.875 224.668 167.368C247.743 166.984 257.455 182.95 260.175 190.051C264.494 201.324 263.958 215.007 256.948 226.215C246.177 243.435 226.363 246.071 215.511 246.11C203.032 246.155 192.879 255.979 192.879 268.01V314.001L255.387 312.852V301.372C255.387 301.159 255.524 300.975 255.736 300.903C263.35 298.312 275.422 293.401 289.005 282.694L284.936 229.728C284.936 229.728 296.832 207.379 296.243 202.35C290.856 156.412 274.874 130.418 268.377 127.993C261.084 125.272 232.924 126.597 232.924 126.597C232.924 126.597 220.762 148.624 203.7 151.065C194.207 152.423 190.74 140.833 190.74 140.833L168.687 153.472C152.992 161.211 149.946 191.32 149.658 210.52H173.629Z" fill="#778DA9"/>
<g opacity="0.3">
<path d="M246.068 237.58C258.668 240.716 271.089 244.682 283.689 247.817C284.624 248.05 285.619 248.319 286.25 249.032C287.178 250.082 286.97 251.676 286.554 253.003C285.229 257.237 282.37 260.896 278.968 263.818C276.226 266.173 272.942 268.159 269.304 268.436C265.253 268.745 261.358 266.909 257.932 264.772C249.173 259.307 241.698 251.323 237 242.262C237 242.262 239.954 241.074 242.215 239.893C244.315 238.795 246.068 237.58 246.068 237.58Z" fill="black"/>
</g>
<path d="M259.917 190.37C264.955 201.734 263.677 215.211 256.499 226.419C252.514 232.64 247.441 237.081 241.908 240.06C247.867 246.397 253.917 251.979 259.897 256.129C266.332 260.592 281.165 259.323 286.789 249.55C293.727 237.492 294.308 206.687 294.308 206.687C295.626 188.116 295.626 188.116 295.626 188.116L256.824 182.306L256.513 183.346C258.177 185.786 259.158 188.658 259.917 190.37Z" fill="#FFBF9D"/>
<path d="M192.353 182.567L190.144 185.971C188.464 187.104 186.866 186.482 185.828 184.377L161.942 148.837L167.761 145.22L194.143 179.301C194.143 179.301 194.515 181.108 192.353 182.567Z" fill="#455A64"/>
<path d="M137.168 148.228C132.492 145.648 128.57 141.67 126.143 136.557C123.153 130.26 122.852 123.2 125.294 116.681C127.736 110.161 132.628 104.961 139.072 102.038C152.371 96.0059 168.212 101.675 174.385 114.676C177.374 120.974 177.675 128.033 175.234 134.553C172.791 141.073 167.899 146.272 161.456 149.195C153.387 152.854 144.381 152.207 137.168 148.228ZM162.483 104.52C155.752 100.807 147.351 100.203 139.821 103.618C133.81 106.344 129.245 111.196 126.966 117.279C124.688 123.362 124.969 129.949 127.758 135.825C130.548 141.702 135.51 146.164 141.734 148.391C147.957 150.618 154.694 150.343 160.706 147.617C166.717 144.89 171.283 140.038 173.56 133.955C175.84 127.872 175.558 121.286 172.768 115.409C170.505 110.639 166.844 106.926 162.483 104.52Z" fill="#263238"/>
<path d="M138.301 147.138C133.625 144.558 129.703 140.579 127.276 135.466C124.286 129.169 123.985 122.11 126.427 115.59C128.869 109.071 133.761 103.871 140.205 100.948C153.504 94.9158 169.345 100.585 175.518 113.587C178.507 119.885 178.808 126.944 176.367 133.464C173.925 139.984 169.032 145.184 162.589 148.106C154.519 151.764 145.513 151.117 138.301 147.138ZM163.615 103.429C156.885 99.7156 148.483 99.1118 140.954 102.527C134.942 105.253 130.377 110.105 128.098 116.188C125.82 122.271 126.101 128.858 128.89 134.734C131.68 140.611 136.642 145.073 142.866 147.3C149.089 149.527 155.826 149.252 161.838 146.526C167.849 143.799 172.415 138.947 174.693 132.864C176.971 126.781 176.69 120.194 173.9 114.319C171.637 109.548 167.977 105.835 163.615 103.429Z" fill="#455A64"/>
<path d="M173.512 124.891C173.503 124.891 173.494 124.743 173.485 124.464C173.463 124.184 173.497 123.772 173.434 123.245C173.373 122.188 173.131 120.663 172.553 118.858C172.269 117.954 171.866 116.995 171.389 115.985C170.873 114.996 170.305 113.942 169.57 112.917C168.854 111.883 168.031 110.841 167.073 109.855C166.123 108.864 165.07 107.895 163.882 107.041C162.7 106.181 161.456 105.464 160.201 104.881C158.938 104.311 157.665 103.887 156.432 103.563C153.953 102.953 151.631 102.785 149.7 102.895C147.768 103 146.22 103.297 145.176 103.582C144.647 103.698 144.254 103.852 143.978 103.923C143.704 104.003 143.558 104.041 143.554 104.032C143.55 104.023 143.689 103.967 143.958 103.87C144.23 103.782 144.618 103.611 145.146 103.477C146.186 103.16 147.74 102.83 149.689 102.699C151.636 102.562 153.985 102.71 156.497 103.314C157.747 103.636 159.038 104.059 160.319 104.634C161.593 105.221 162.855 105.947 164.053 106.818C165.256 107.683 166.32 108.665 167.278 109.669C168.244 110.669 169.071 111.725 169.789 112.774C170.525 113.813 171.092 114.882 171.603 115.886C172.076 116.909 172.472 117.883 172.747 118.8C173.306 120.629 173.519 122.174 173.546 123.239C173.593 123.77 173.541 124.185 173.543 124.465C173.532 124.745 173.522 124.891 173.512 124.891Z" fill="white"/>
<path d="M145.766 146.049C145.784 145.985 146.998 146.427 149.046 146.7C149.303 146.73 149.572 146.762 149.851 146.795C150.13 146.825 150.425 146.826 150.727 146.844C151.333 146.892 151.981 146.861 152.662 146.848C154.023 146.769 155.512 146.567 157.035 146.176C158.553 145.766 159.944 145.208 161.162 144.608C161.757 144.285 162.334 143.993 162.833 143.655C163.085 143.49 163.34 143.346 163.566 143.182C163.79 143.016 164.005 142.857 164.213 142.705C165.842 141.463 166.666 140.485 166.715 140.531C166.73 140.543 166.523 140.783 166.135 141.208C165.945 141.425 165.704 141.681 165.394 141.951C165.089 142.223 164.757 142.555 164.338 142.86C164.133 143.019 163.918 143.184 163.696 143.357C163.47 143.527 163.217 143.678 162.964 143.849C162.465 144.2 161.885 144.503 161.285 144.837C160.058 145.458 158.649 146.031 157.111 146.447C155.566 146.843 154.054 147.039 152.676 147.105C151.985 147.111 151.328 147.134 150.716 147.076C150.41 147.052 150.113 147.046 149.83 147.01C149.549 146.97 149.279 146.932 149.02 146.896C148.501 146.839 148.044 146.714 147.639 146.628C147.233 146.547 146.892 146.444 146.617 146.35C146.061 146.174 145.759 146.067 145.766 146.049Z" fill="white"/>
<path d="M164.06 129.402C164.004 129.456 160.538 126.064 156.32 121.827C152.101 117.59 148.727 114.112 148.783 114.058C148.839 114.004 152.304 117.396 156.524 121.633C160.742 125.869 164.116 129.349 164.06 129.402Z" fill="white"/>
<path d="M159.968 136.21C159.961 136.216 159.874 136.134 159.715 135.969C159.539 135.781 159.313 135.541 159.034 135.243C158.425 134.58 157.584 133.666 156.555 132.547C154.465 130.268 151.569 127.129 148.332 123.696C145.094 120.262 142.127 117.186 139.973 114.965C138.916 113.872 138.052 112.979 137.426 112.331C137.145 112.035 136.918 111.795 136.741 111.608C136.587 111.441 136.509 111.35 136.516 111.343C136.523 111.336 136.615 111.414 136.782 111.569C136.969 111.747 137.208 111.975 137.506 112.256C138.13 112.856 139.023 113.735 140.119 114.828C142.31 117.016 145.301 120.072 148.542 123.507C151.78 126.942 154.654 130.104 156.706 132.417C157.733 133.573 158.556 134.515 159.117 135.172C159.381 135.485 159.594 135.737 159.759 135.933C159.903 136.109 159.975 136.203 159.968 136.21Z" fill="white"/>
<g opacity="0.3">
<path d="M138.288 104.376L170.936 139.044C170.936 139.044 168.293 142.657 165.873 144.229L132.536 108.751C132.536 108.751 134.939 105.92 138.288 104.376Z" fill="white"/>
</g>
<g opacity="0.3">
<path d="M129.729 112.748L161.839 146.525C161.839 146.525 162.137 146.684 159.925 147.231L128.822 114.463C128.822 114.463 128.985 113.642 129.729 112.748Z" fill="white"/>
</g>
<path d="M214.254 168.477C207.395 163.093 190.588 149.926 189.82 149.575C188.853 149.133 174.06 143.996 171.227 145.646C168.393 147.297 160.796 156.619 160.796 156.619C160.796 156.619 161.518 162.416 168.144 158.267C173.2 155.102 173.984 154.611 174.073 154.555C174.068 154.559 174.063 154.561 174.063 154.561L181.107 156.17C181.107 156.17 172.515 159.678 170.698 161.522C168.881 163.366 166.007 170.428 167.799 172.054C169.592 173.68 171.673 173.82 171.673 173.82C171.673 173.82 168.127 178.744 174.418 181.717C174.418 181.717 175.337 185.856 178.44 187.479C181.544 189.1 187.326 188.527 187.326 188.527C187.326 188.527 190.007 186.977 188.016 184.407C186.024 181.837 182.349 181.481 182.349 181.481L186.903 178.884C186.903 178.884 189.272 179.593 192.783 182.244C192.783 182.244 196.941 177.04 201.092 174.099C205.752 170.798 214.254 168.477 214.254 168.477Z" fill="#FFBF9D"/>
<path d="M185.099 170.664C185.097 170.644 184.855 170.648 184.423 170.703C183.99 170.757 183.369 170.878 182.623 171.111C181.14 171.565 179.15 172.571 177.518 174.305C175.886 176.04 175.028 178.063 174.689 179.546C174.514 180.291 174.442 180.907 174.424 181.333C174.404 181.758 174.42 181.994 174.441 181.995C174.505 182 174.518 181.054 174.919 179.603C175.311 178.162 176.181 176.213 177.766 174.528C179.351 172.843 181.264 171.832 182.701 171.33C184.146 170.818 185.11 170.726 185.099 170.664Z" fill="#FF9A6C"/>
<path d="M185.402 163.171C185.399 163.148 185.143 163.167 184.679 163.22C184.447 163.244 184.164 163.281 183.841 163.354C183.517 163.424 183.143 163.484 182.744 163.609C181.936 163.818 180.999 164.16 179.998 164.62C179.006 165.1 177.955 165.709 176.937 166.465C175.928 167.235 175.056 168.072 174.329 168.888C173.617 169.717 173.041 170.514 172.628 171.225C172.402 171.57 172.247 171.908 172.095 172.196C171.941 172.483 171.831 172.741 171.748 172.954C171.577 173.378 171.493 173.615 171.514 173.624C171.576 173.65 171.952 172.71 172.83 171.345C173.262 170.66 173.851 169.889 174.562 169.086C175.289 168.296 176.15 167.481 177.141 166.726C178.14 165.983 179.289 165.147 180.257 164.66C181.233 164.193 182.022 164.065 182.81 163.831C184.387 163.352 185.413 163.235 185.402 163.171Z" fill="#FF9A6C"/>
<path d="M186.689 154.565C186.698 154.529 186.342 154.394 185.732 154.354C185.125 154.312 184.263 154.405 183.397 154.762C182.227 155.251 181.815 155.728 181.476 156.122C181.082 156.579 180.934 156.922 180.967 156.941C181.045 157.009 181.862 155.737 183.529 155.065C185.18 154.359 186.684 154.667 186.689 154.565Z" fill="#FF9A6C"/>
<path d="M265.641 127.3C265.641 127.3 287.348 129.336 294.239 147.771C299.708 162.403 302.68 206.24 301.309 207.134L262.984 205.936C262.479 195.246 259.535 187.004 255.407 181.671L265.641 127.3Z" fill="#778DA9"/>
<path d="M263.572 205.936C263.589 205.91 263.856 206.057 264.324 206.345C264.793 206.632 265.452 207.074 266.248 207.648C267.841 208.791 269.95 210.501 272.08 212.594C274.213 214.684 275.959 216.744 277.157 218.278C277.755 219.047 278.224 219.68 278.529 220.13C278.837 220.578 278.995 220.834 278.969 220.853C278.912 220.894 278.157 219.957 276.901 218.478C275.643 217 273.868 214.988 271.752 212.913C269.638 210.836 267.581 209.102 266.048 207.9C264.516 206.697 263.531 205.994 263.572 205.936Z" fill="#FF9A6C"/>
<path d="M259.007 160.843C259.133 160.864 258.43 165.544 257.436 171.295C256.442 177.047 255.534 181.692 255.408 181.671C255.281 181.65 255.984 176.972 256.978 171.219C257.973 165.468 258.88 160.823 259.007 160.843Z" fill="#263238"/>
<path d="M210.773 292.303C210.772 292.287 210.991 292.255 211.409 292.209C211.874 292.163 212.483 292.103 213.242 292.028C214.886 291.876 217.176 291.665 219.983 291.404C225.673 290.87 233.528 290.068 242.179 289.001C250.834 287.929 258.646 286.793 264.293 285.926C267.078 285.495 269.349 285.142 270.98 284.889C271.734 284.777 272.339 284.687 272.8 284.618C273.217 284.562 273.437 284.539 273.44 284.554C273.442 284.57 273.228 284.622 272.816 284.708C272.358 284.798 271.758 284.916 271.01 285.063C269.441 285.364 267.163 285.769 264.345 286.243C258.708 287.192 250.898 288.379 242.236 289.451C233.577 290.52 225.711 291.272 220.01 291.725C217.16 291.952 214.852 292.114 213.254 292.205C212.492 292.245 211.881 292.276 211.415 292.301C210.995 292.317 210.774 292.319 210.773 292.303Z" fill="#263238"/>
<path d="M207.385 286.703C207.384 286.672 207.946 286.624 208.965 286.563C210.058 286.506 211.513 286.431 213.277 286.338C216.988 286.152 221.982 285.903 227.5 285.626C233.018 285.314 238.01 285.031 241.72 284.82C243.483 284.724 244.937 284.644 246.031 284.584C247.049 284.535 247.615 284.523 247.616 284.554C247.619 284.585 247.059 284.657 246.045 284.759C245.03 284.863 243.561 284.993 241.743 285.14C238.108 285.434 233.083 285.781 227.525 286.078C221.968 286.374 216.934 286.564 213.289 286.659C211.466 286.706 209.991 286.733 208.971 286.739C207.95 286.746 207.386 286.734 207.385 286.703Z" fill="#263238"/>
<path d="M146.344 207.38C146.485 206.846 146.714 206.344 147.038 205.892C147.678 204.993 148.649 204.309 149.748 204.063C151.575 203.656 153.621 204.492 154.609 206.049C154.543 204.862 155.501 203.756 156.674 203.443C157.847 203.13 158.757 203.572 159.692 204.33C160.628 205.089 160.867 205.693 161.247 206.822C162.181 204.772 166.982 205.023 167.565 206.561C167.565 206.561 171.696 202.142 173.809 204.315C174.686 205.218 174.31 206.603 173.729 207.991C172.953 209.843 172.442 210.614 171.427 212.655L167.517 212.863C167.188 214.06 166.495 218.924 166.348 220.154C166.201 221.384 165.949 222.637 165.28 223.689C164.611 224.741 163.447 225.564 162.18 225.547C160.913 225.53 159.665 224.468 159.74 223.231C159.474 224.253 159.028 225.262 158.258 226C157.487 226.737 156.346 227.163 155.302 226.897C154.258 226.63 153.43 225.563 153.642 224.529C152.248 225.473 150.188 224.635 149.303 223.221C148.418 221.807 148.397 220.05 148.451 218.392C148.499 216.924 148.635 215.276 148.043 213.886C147.95 213.666 147.79 213.477 147.735 213.244C147.655 212.898 147.709 212.507 147.684 212.153C147.628 211.383 147.483 210.615 147.213 209.889C147.153 209.73 147.088 209.572 147.016 209.417C146.827 209.006 146.546 208.658 146.332 208.265C146.285 208.178 146.245 208.093 146.233 207.995C146.209 207.793 146.293 207.569 146.344 207.38Z" fill="#FFBF9D"/>
<path d="M141.946 205.257C140.901 205.22 139.763 205.432 139.065 206.193C138.238 207.096 138.048 209.257 138.142 210.466C139.591 210.733 140.364 210.418 141.813 210.685C142.118 210.741 142.374 210.666 142.627 210.842C143.295 211.305 143.186 212.868 143.455 213.625C143.922 214.937 145.642 215.579 146.975 215.096C148.308 214.613 149.166 213.227 149.234 211.839C149.302 210.451 148.677 209.093 147.762 208.03C146.333 206.369 144.165 205.335 141.946 205.257Z" fill="#FFBF9D"/>
<path d="M166.621 218.125C166.473 218.095 167.07 215.502 167.447 212.277C167.628 210.664 167.67 209.196 167.605 208.138C167.549 207.081 167.422 206.43 167.494 206.413C167.547 206.398 167.79 207.033 167.932 208.11C168.083 209.184 168.092 210.689 167.908 212.326C167.728 213.963 167.415 215.419 167.157 216.463C166.893 217.506 166.681 218.138 166.621 218.125Z" fill="#FF9A6C"/>
<path d="M159.564 223.693C159.499 223.679 159.667 222.737 159.951 221.222C160.234 219.707 160.631 217.615 160.932 215.291C161.233 212.965 161.341 210.846 161.309 209.313C161.286 207.779 161.172 206.832 161.246 206.821C161.298 206.813 161.528 207.75 161.636 209.3C161.753 210.848 161.697 213.001 161.392 215.347C161.089 217.693 160.638 219.786 160.273 221.288C159.904 222.791 159.625 223.707 159.564 223.693Z" fill="#FF9A6C"/>
<path d="M153.595 224.688C153.526 224.669 153.772 223.63 154.084 221.938C154.397 220.246 154.742 217.894 154.89 215.278C155.033 212.661 154.952 210.286 154.829 208.571C154.708 206.855 154.578 205.796 154.65 205.785C154.682 205.781 154.749 206.04 154.845 206.515C154.945 206.989 155.053 207.682 155.156 208.542C155.364 210.261 155.499 212.66 155.354 215.303C155.204 217.945 154.804 220.315 154.406 222.001C154.208 222.845 154.023 223.522 153.872 223.983C153.722 224.445 153.625 224.695 153.595 224.688Z" fill="#FF9A6C"/>
<path d="M145.724 207.651C145.744 207.605 146.26 207.751 146.943 208.253C147.623 208.747 148.442 209.638 148.923 210.836C149.402 212.032 149.44 213.244 149.185 214.061C148.926 214.902 148.386 215.194 148.368 215.141C148.316 215.091 148.719 214.748 148.867 213.983C149.019 213.232 148.937 212.111 148.491 211.002C148.044 209.889 147.326 209.03 146.733 208.499C146.139 207.962 145.688 207.716 145.724 207.651Z" fill="#FF9A6C"/>
</svg>
