<svg width="161" height="53" viewBox="0 0 161 53" fill="none" xmlns="http://www.w3.org/2000/svg">
<path d="M58.1738 19.2489C58.1738 18.9522 58.1281 18.686 58.0368 18.4501C57.9532 18.2067 57.7934 17.9861 57.5576 17.7883C57.3217 17.5829 56.9908 17.3813 56.5648 17.1834C56.1387 16.9856 55.5872 16.7802 54.9101 16.5672C54.1569 16.3238 53.4418 16.0499 52.7647 15.7456C52.0952 15.4413 51.5018 15.0875 50.9845 14.6843C50.4748 14.2735 50.0715 13.798 49.7748 13.2579C49.4858 12.7177 49.3412 12.0901 49.3412 11.3749C49.3412 10.6826 49.4934 10.055 49.7977 9.49203C50.102 8.92145 50.528 8.43455 51.0758 8.03134C51.6235 7.62052 52.2702 7.3048 53.0157 7.08418C53.7689 6.86355 54.5943 6.75324 55.4921 6.75324C56.7169 6.75324 57.7858 6.97387 58.6987 7.41511C59.6117 7.85636 60.3192 8.46118 60.8213 9.22956C61.331 9.99794 61.5859 10.8766 61.5859 11.8656H58.1852C58.1852 11.3787 58.0825 10.9527 57.8771 10.5875C57.6793 10.2148 57.375 9.92186 56.9642 9.70885C56.5609 9.49583 56.0512 9.38932 55.435 9.38932C54.8416 9.38932 54.3471 9.48062 53.9515 9.6632C53.5559 9.83818 53.2592 10.0778 53.0614 10.3821C52.8636 10.6788 52.7647 11.0136 52.7647 11.3864C52.7647 11.6678 52.8332 11.9227 52.9701 12.1509C53.1146 12.3792 53.3277 12.5922 53.6091 12.79C53.8906 12.9878 54.2368 13.1742 54.6476 13.3491C55.0584 13.5241 55.5339 13.6953 56.0741 13.8627C56.9794 14.1366 57.7744 14.4447 58.4591 14.787C59.1514 15.1294 59.7296 15.5136 60.1936 15.9396C60.6577 16.3656 61.0077 16.8487 61.2435 17.3889C61.4794 17.929 61.5973 18.5414 61.5973 19.2261C61.5973 19.9489 61.4565 20.5955 61.175 21.1661C60.8936 21.7367 60.4865 22.2198 59.954 22.6154C59.4215 23.011 58.7862 23.3115 58.0483 23.5169C57.3103 23.7223 56.4849 23.825 55.5719 23.825C54.7503 23.825 53.9401 23.7185 53.1413 23.5055C52.3425 23.2849 51.6159 22.9539 50.9617 22.5127C50.315 22.0714 49.7977 21.5084 49.4097 20.8238C49.0217 20.1391 48.8277 19.3288 48.8277 18.3931H52.2626C52.2626 18.9104 52.3425 19.3479 52.5022 19.7054C52.662 20.063 52.8864 20.3521 53.1755 20.5727C53.4722 20.7933 53.8222 20.9531 54.2254 21.052C54.6362 21.1509 55.085 21.2003 55.5719 21.2003C56.1653 21.2003 56.6522 21.1166 57.0326 20.9493C57.4206 20.7819 57.7059 20.5499 57.8885 20.2532C58.0787 19.9565 58.1738 19.6217 58.1738 19.2489ZM69.4028 23.825C68.4442 23.825 67.5846 23.6728 66.8238 23.3685C66.063 23.0566 65.4164 22.6268 64.8838 22.079C64.3589 21.5313 63.9557 20.896 63.6742 20.1733C63.3927 19.4429 63.252 18.667 63.252 17.8453V17.3889C63.252 16.4531 63.3851 15.5972 63.6514 14.8212C63.9176 14.0453 64.298 13.372 64.7925 12.8014C65.2946 12.2308 65.9032 11.7934 66.6184 11.4891C67.3335 11.1771 68.1399 11.0212 69.0376 11.0212C69.9125 11.0212 70.6885 11.1657 71.3656 11.4548C72.0427 11.7439 72.6095 12.1547 73.0659 12.6873C73.53 13.2198 73.88 13.8589 74.1158 14.6044C74.3516 15.3424 74.4696 16.164 74.4696 17.0693V18.4387H64.6556V16.2477H71.2401V15.9966C71.2401 15.5402 71.1564 15.1332 70.989 14.7756C70.8293 14.4104 70.5858 14.1213 70.2587 13.9083C69.9315 13.6953 69.5131 13.5888 69.0034 13.5888C68.5698 13.5888 68.197 13.6839 67.8851 13.8741C67.5731 14.0643 67.3183 14.3305 67.1205 14.6729C66.9303 15.0152 66.7857 15.4185 66.6868 15.8825C66.5956 16.339 66.5499 16.8411 66.5499 17.3889V17.8453C66.5499 18.3398 66.6184 18.7963 66.7553 19.2147C66.8999 19.6331 67.1015 19.9945 67.3601 20.2988C67.6264 20.6031 67.9459 20.839 68.3187 21.0063C68.6991 21.1737 69.1289 21.2574 69.6082 21.2574C70.2016 21.2574 70.7532 21.1433 71.2629 20.915C71.7802 20.6792 72.2253 20.3254 72.5981 19.8538L74.1957 21.5883C73.937 21.9611 73.5833 22.3187 73.1344 22.661C72.6932 23.0034 72.1606 23.2849 71.5368 23.5055C70.9129 23.7185 70.2016 23.825 69.4028 23.825ZM84.158 11.2494H87.1364V23.186C87.1364 24.3119 86.8854 25.2667 86.3833 26.0503C85.8888 26.8415 85.1965 27.4387 84.3064 27.8419C83.4163 28.2527 82.3816 28.4581 81.2024 28.4581C80.6851 28.4581 80.1373 28.3896 79.5591 28.2527C78.9886 28.1158 78.4408 27.9028 77.9159 27.6137C77.3985 27.3246 76.9649 26.9594 76.6149 26.5181L78.0642 24.5782C78.4446 25.0194 78.8859 25.3618 79.388 25.6052C79.8901 25.8563 80.4454 25.9818 81.0541 25.9818C81.6475 25.9818 82.1496 25.8715 82.5604 25.6509C82.9712 25.4378 83.2869 25.1221 83.5076 24.7037C83.7282 24.2929 83.8385 23.7946 83.8385 23.2088V14.1023L84.158 11.2494ZM75.8504 17.5714V17.3318C75.8504 16.3884 75.9645 15.5326 76.1927 14.7642C76.4286 13.9882 76.7595 13.3225 77.1855 12.7672C77.6192 12.2118 78.1441 11.782 78.7603 11.4776C79.3766 11.1733 80.0727 11.0212 80.8486 11.0212C81.6703 11.0212 82.3588 11.1733 82.9141 11.4776C83.4695 11.782 83.926 12.2156 84.2835 12.7786C84.6411 13.3339 84.9188 13.992 85.1166 14.7528C85.322 15.5059 85.4818 16.3314 85.5959 17.2291V17.754C85.4818 18.6137 85.3106 19.4125 85.0824 20.1505C84.8541 20.8884 84.5536 21.5351 84.1808 22.0904C83.8081 22.6382 83.344 23.0642 82.7886 23.3685C82.2409 23.6728 81.5866 23.825 80.8258 23.825C80.0651 23.825 79.3766 23.669 78.7603 23.3571C78.1517 23.0452 77.6306 22.6078 77.1969 22.0448C76.7633 21.4818 76.4286 20.8199 76.1927 20.0592C75.9645 19.2984 75.8504 18.4692 75.8504 17.5714ZM79.1369 17.3318V17.5714C79.1369 18.0812 79.1864 18.5566 79.2853 18.9979C79.3842 19.4391 79.5363 19.8309 79.7417 20.1733C79.9547 20.508 80.2172 20.7705 80.5291 20.9607C80.8486 21.1433 81.2252 21.2346 81.6589 21.2346C82.2599 21.2346 82.7506 21.109 83.131 20.858C83.5114 20.5993 83.7966 20.2456 83.9868 19.7967C84.177 19.3479 84.2873 18.8305 84.3178 18.2447V16.7498C84.3026 16.2705 84.2379 15.8407 84.1238 15.4603C84.0097 15.0723 83.8499 14.7414 83.6445 14.4675C83.4391 14.1936 83.1728 13.9806 82.8457 13.8284C82.5185 13.6763 82.1306 13.6002 81.6817 13.6002C81.2481 13.6002 80.8715 13.6991 80.5519 13.8969C80.24 14.0871 79.9776 14.3496 79.7645 14.6843C79.5591 15.019 79.4032 15.4147 79.2967 15.8711C79.1902 16.32 79.1369 16.8069 79.1369 17.3318ZM96.9961 20.6412V11.2494H100.283V23.5968H97.1901L96.9961 20.6412ZM97.3612 18.1078L98.3312 18.085C98.3312 18.9066 98.2361 19.6712 98.0459 20.3787C97.8557 21.0786 97.5705 21.6872 97.1901 22.2046C96.8097 22.7143 96.3304 23.1137 95.7522 23.4028C95.174 23.6843 94.4931 23.825 93.7095 23.825C93.1085 23.825 92.5532 23.7413 92.0434 23.5739C91.5413 23.399 91.1077 23.1289 90.7425 22.7637C90.3849 22.3909 90.1035 21.9155 89.8981 21.3373C89.7003 20.7515 89.6014 20.0478 89.6014 19.2261V11.2494H92.8879V19.2489C92.8879 19.6141 92.9297 19.9222 93.0134 20.1733C93.1047 20.4243 93.2302 20.6298 93.39 20.7895C93.5498 20.9493 93.7362 21.0634 93.9492 21.1319C94.1698 21.2003 94.4132 21.2346 94.6795 21.2346C95.3566 21.2346 95.8891 21.0976 96.2771 20.8238C96.6727 20.5499 96.9504 20.1771 97.1102 19.7054C97.2776 19.2261 97.3612 18.6936 97.3612 18.1078ZM106.08 13.9426V23.5968H102.793V11.2494H105.886L106.08 13.9426ZM109.8 11.1695L109.743 14.2164C109.583 14.1936 109.389 14.1746 109.161 14.1594C108.94 14.1366 108.739 14.1251 108.556 14.1251C108.092 14.1251 107.689 14.186 107.346 14.3077C107.012 14.4218 106.73 14.593 106.502 14.8212C106.281 15.0495 106.114 15.3272 106 15.6543C105.893 15.9814 105.832 16.3542 105.817 16.7726L105.155 16.5672C105.155 15.7684 105.235 15.0343 105.395 14.3648C105.555 13.6877 105.787 13.0981 106.091 12.596C106.403 12.0939 106.783 11.7059 107.232 11.432C107.681 11.1581 108.195 11.0212 108.773 11.0212C108.955 11.0212 109.142 11.0364 109.332 11.0668C109.522 11.0897 109.678 11.1239 109.8 11.1695ZM117.628 20.8123V15.3119C117.628 14.9163 117.564 14.5778 117.434 14.2963C117.305 14.0072 117.103 13.7828 116.829 13.623C116.563 13.4633 116.217 13.3834 115.791 13.3834C115.426 13.3834 115.11 13.4481 114.844 13.5774C114.578 13.6991 114.372 13.8779 114.228 14.1137C114.083 14.342 114.011 14.612 114.011 14.924H110.724C110.724 14.399 110.846 13.9007 111.089 13.429C111.333 12.9574 111.687 12.5427 112.151 12.1852C112.615 11.82 113.166 11.5347 113.805 11.3293C114.452 11.1239 115.175 11.0212 115.974 11.0212C116.932 11.0212 117.784 11.1809 118.53 11.5005C119.275 11.82 119.861 12.2993 120.287 12.9383C120.721 13.5774 120.938 14.3762 120.938 15.3348V20.6183C120.938 21.2954 120.979 21.8508 121.063 22.2844C121.147 22.7105 121.269 23.0832 121.428 23.4028V23.5968H118.108C117.948 23.262 117.826 22.8436 117.742 22.3415C117.666 21.8318 117.628 21.3221 117.628 20.8123ZM118.062 16.0765L118.085 17.9366H116.247C115.814 17.9366 115.437 17.9861 115.118 18.085C114.798 18.1839 114.536 18.3246 114.33 18.5072C114.125 18.6822 113.973 18.8876 113.874 19.1234C113.783 19.3593 113.737 19.6179 113.737 19.8994C113.737 20.1809 113.802 20.4358 113.931 20.664C114.06 20.8846 114.247 21.0596 114.49 21.1889C114.734 21.3106 115.019 21.3715 115.346 21.3715C115.84 21.3715 116.27 21.2726 116.635 21.0748C117.001 20.877 117.282 20.6336 117.48 20.3445C117.685 20.0554 117.792 19.7815 117.799 19.5228L118.667 20.915C118.545 21.227 118.378 21.5503 118.165 21.885C117.959 22.2198 117.697 22.5355 117.377 22.8322C117.058 23.1213 116.673 23.3609 116.225 23.5511C115.776 23.7337 115.243 23.825 114.627 23.825C113.843 23.825 113.132 23.669 112.493 23.3571C111.862 23.0376 111.359 22.6002 110.987 22.0448C110.622 21.4818 110.439 20.8428 110.439 20.1276C110.439 19.481 110.561 18.9066 110.804 18.4045C111.048 17.9024 111.405 17.4802 111.877 17.1378C112.356 16.7878 112.953 16.5254 113.668 16.3504C114.384 16.1678 115.213 16.0765 116.156 16.0765H118.062ZM126.689 13.8855V23.5968H123.403V11.2494H126.484L126.689 13.8855ZM126.21 16.9895H125.32C125.32 16.0765 125.438 15.2549 125.673 14.5245C125.909 13.7866 126.24 13.159 126.666 12.6416C127.092 12.1167 127.598 11.7173 128.184 11.4434C128.777 11.1619 129.439 11.0212 130.17 11.0212C130.748 11.0212 131.277 11.1049 131.756 11.2722C132.235 11.4396 132.646 11.7059 132.988 12.071C133.338 12.4362 133.604 12.9193 133.787 13.5203C133.977 14.1213 134.072 14.8555 134.072 15.7228V23.5968H130.763V15.7114C130.763 15.1636 130.687 14.7376 130.535 14.4333C130.383 14.1289 130.158 13.9159 129.861 13.7942C129.572 13.6649 129.215 13.6002 128.789 13.6002C128.348 13.6002 127.963 13.6877 127.636 13.8627C127.317 14.0376 127.05 14.2811 126.837 14.593C126.632 14.8973 126.476 15.2549 126.37 15.6657C126.263 16.0765 126.21 16.5178 126.21 16.9895ZM141.673 21.2574C142.076 21.2574 142.433 21.1813 142.745 21.0292C143.057 20.8694 143.301 20.6488 143.476 20.3673C143.658 20.0782 143.753 19.7396 143.761 19.3517H146.853C146.846 20.2189 146.614 20.9911 146.157 21.6682C145.701 22.3377 145.088 22.8664 144.32 23.2544C143.552 23.6348 142.692 23.825 141.741 23.825C140.782 23.825 139.946 23.6652 139.23 23.3457C138.523 23.0262 137.933 22.5849 137.462 22.022C136.99 21.4514 136.636 20.7895 136.4 20.0364C136.165 19.2756 136.047 18.4615 136.047 17.5943V17.2633C136.047 16.3884 136.165 15.5744 136.4 14.8212C136.636 14.0605 136.99 13.3986 137.462 12.8356C137.933 12.265 138.523 11.82 139.23 11.5005C139.938 11.1809 140.767 11.0212 141.718 11.0212C142.73 11.0212 143.616 11.2152 144.377 11.6032C145.145 11.9912 145.746 12.5465 146.18 13.2693C146.621 13.9844 146.846 14.8327 146.853 15.8141H143.761C143.753 15.4032 143.666 15.0305 143.498 14.6957C143.339 14.361 143.103 14.0947 142.791 13.8969C142.487 13.6915 142.11 13.5888 141.661 13.5888C141.182 13.5888 140.79 13.6915 140.486 13.8969C140.181 14.0947 139.946 14.3686 139.778 14.7185C139.611 15.0609 139.493 15.4527 139.424 15.8939C139.364 16.3276 139.333 16.784 139.333 17.2633V17.5943C139.333 18.0736 139.364 18.5338 139.424 18.9751C139.485 19.4163 139.599 19.8081 139.767 20.1505C139.942 20.4928 140.181 20.7629 140.486 20.9607C140.79 21.1585 141.186 21.2574 141.673 21.2574ZM140.44 23.5511H142.916L142.791 24.2244C143.224 24.3005 143.62 24.4831 143.978 24.7722C144.335 25.0613 144.514 25.5367 144.514 26.1986C144.514 26.6018 144.427 26.967 144.252 27.2941C144.084 27.6213 143.833 27.9028 143.498 28.1386C143.164 28.382 142.745 28.5646 142.243 28.6863C141.741 28.8157 141.163 28.8803 140.509 28.8803L140.429 27.0545C140.672 27.0545 140.893 27.0203 141.091 26.9518C141.288 26.8833 141.444 26.7768 141.558 26.6323C141.673 26.4953 141.73 26.3127 141.73 26.0845C141.73 25.8715 141.673 25.7041 141.558 25.5824C141.444 25.4607 141.265 25.3694 141.022 25.3085C140.786 25.2477 140.474 25.2058 140.086 25.183L140.44 23.5511ZM155.423 20.8123V15.3119C155.423 14.9163 155.359 14.5778 155.229 14.2963C155.1 14.0072 154.899 13.7828 154.625 13.623C154.358 13.4633 154.012 13.3834 153.586 13.3834C153.221 13.3834 152.905 13.4481 152.639 13.5774C152.373 13.6991 152.167 13.8779 152.023 14.1137C151.878 14.342 151.806 14.612 151.806 14.924H148.519C148.519 14.399 148.641 13.9007 148.885 13.429C149.128 12.9574 149.482 12.5427 149.946 12.1852C150.41 11.82 150.962 11.5347 151.601 11.3293C152.247 11.1239 152.97 11.0212 153.769 11.0212C154.727 11.0212 155.579 11.1809 156.325 11.5005C157.071 11.82 157.656 12.2993 158.082 12.9383C158.516 13.5774 158.733 14.3762 158.733 15.3348V20.6183C158.733 21.2954 158.775 21.8508 158.858 22.2844C158.942 22.7105 159.064 23.0832 159.224 23.4028V23.5968H155.903C155.743 23.262 155.621 22.8436 155.538 22.3415C155.462 21.8318 155.423 21.3221 155.423 20.8123ZM155.857 16.0765L155.88 17.9366H154.043C153.609 17.9366 153.232 17.9861 152.913 18.085C152.593 18.1839 152.331 18.3246 152.126 18.5072C151.92 18.6822 151.768 18.8876 151.669 19.1234C151.578 19.3593 151.532 19.6179 151.532 19.8994C151.532 20.1809 151.597 20.4358 151.726 20.664C151.855 20.8846 152.042 21.0596 152.285 21.1889C152.529 21.3106 152.814 21.3715 153.141 21.3715C153.636 21.3715 154.066 21.2726 154.431 21.0748C154.796 20.877 155.077 20.6336 155.275 20.3445C155.481 20.0554 155.587 19.7815 155.595 19.5228L156.462 20.915C156.34 21.227 156.173 21.5503 155.96 21.885C155.754 22.2198 155.492 22.5355 155.172 22.8322C154.853 23.1213 154.469 23.3609 154.02 23.5511C153.571 23.7337 153.038 23.825 152.422 23.825C151.639 23.825 150.927 23.669 150.288 23.3571C149.657 23.0376 149.155 22.6002 148.782 22.0448C148.417 21.4818 148.234 20.8428 148.234 20.1276C148.234 19.481 148.356 18.9066 148.599 18.4045C148.843 17.9024 149.2 17.4802 149.672 17.1378C150.151 16.7878 150.749 16.5254 151.464 16.3504C152.179 16.1678 153.008 16.0765 153.951 16.0765H155.857Z" fill="#FDFFF7"/>
<path d="M58.6987 30.3524H62.1108V41.3304C62.1108 42.6085 61.8369 43.685 61.2892 44.5599C60.749 45.4348 59.9996 46.0928 59.0411 46.5341C58.0901 46.9753 56.9946 47.1959 55.7545 47.1959C54.5145 47.1959 53.4113 46.9753 52.4452 46.5341C51.4866 46.0928 50.7334 45.4348 50.1857 44.5599C49.6455 43.685 49.3754 42.6085 49.3754 41.3304V30.3524H52.7989V41.3304C52.7989 42.0759 52.9168 42.6846 53.1527 43.1562C53.3885 43.6279 53.7271 43.9741 54.1683 44.1947C54.6172 44.4153 55.1459 44.5256 55.7545 44.5256C56.3784 44.5256 56.9071 44.4153 57.3407 44.1947C57.782 43.9741 58.1167 43.6279 58.345 43.1562C58.5808 42.6846 58.6987 42.0759 58.6987 41.3304V30.3524ZM68.0106 37.3135V46.9677H64.7241V34.6204H67.8166L68.0106 37.3135ZM71.7308 34.5405L71.6737 37.5874C71.514 37.5645 71.32 37.5455 71.0917 37.5303C70.8711 37.5075 70.6695 37.4961 70.4869 37.4961C70.0228 37.4961 69.6196 37.5569 69.2773 37.6787C68.9425 37.7928 68.6611 37.964 68.4328 38.1922C68.2122 38.4204 68.0448 38.6981 67.9307 39.0252C67.8242 39.3524 67.7633 39.7251 67.7481 40.1436L67.0863 39.9382C67.0863 39.1394 67.1661 38.4052 67.3259 37.7357C67.4857 37.0586 67.7177 36.469 68.022 35.9669C68.3339 35.4648 68.7143 35.0768 69.1632 34.8029C69.612 34.5291 70.1255 34.3921 70.7037 34.3921C70.8863 34.3921 71.0727 34.4073 71.2629 34.4378C71.4531 34.4606 71.6091 34.4948 71.7308 34.5405ZM73.2828 29.4395H76.5693V44.1376L76.2384 46.9677H73.2828V29.4395ZM84.3862 40.6685V40.9081C84.3862 41.8287 84.2873 42.6731 84.0895 43.4415C83.8994 44.2099 83.6026 44.8756 83.1994 45.4386C82.7962 45.9939 82.2941 46.4276 81.6931 46.7395C81.0997 47.0438 80.3998 47.1959 79.5934 47.1959C78.8402 47.1959 78.1859 47.0438 77.6306 46.7395C77.0828 46.4352 76.6226 46.0053 76.2498 45.45C75.877 44.8946 75.5765 44.2441 75.3483 43.4986C75.12 42.753 74.9488 41.939 74.8347 41.0565V40.5316C74.9488 39.6491 75.12 38.835 75.3483 38.0895C75.5765 37.3439 75.877 36.6935 76.2498 36.1381C76.6226 35.5827 77.0828 35.1529 77.6306 34.8486C78.1783 34.5443 78.825 34.3921 79.5705 34.3921C80.3846 34.3921 81.0921 34.5481 81.6931 34.86C82.3017 35.1643 82.8038 35.5979 83.1994 36.1609C83.6026 36.7163 83.8994 37.3782 84.0895 38.1465C84.2873 38.9073 84.3862 39.748 84.3862 40.6685ZM81.0997 40.9081V40.6685C81.0997 40.1664 81.0617 39.6947 80.9856 39.2535C80.9171 38.8046 80.7954 38.4128 80.6204 38.0781C80.4454 37.7357 80.2058 37.4656 79.9015 37.2678C79.6048 37.07 79.2206 36.9711 78.7489 36.9711C78.3001 36.9711 77.9197 37.0472 77.6078 37.1994C77.2958 37.3515 77.0372 37.5645 76.8318 37.8384C76.634 38.1123 76.4856 38.4394 76.3867 38.8198C76.2878 39.1926 76.2269 39.6034 76.2041 40.0523V41.5472C76.2269 42.1482 76.3258 42.6808 76.5008 43.1448C76.6834 43.6013 76.9573 43.9627 77.3225 44.2289C77.6952 44.4876 78.1783 44.6169 78.7717 44.6169C79.2358 44.6169 79.62 44.5256 79.9243 44.343C80.2286 44.1605 80.4645 43.9018 80.6318 43.5671C80.8068 43.2323 80.9285 42.8405 80.997 42.3917C81.0655 41.9352 81.0997 41.4407 81.0997 40.9081ZM93.0933 44.1833V38.6829C93.0933 38.2873 93.0286 37.9487 92.8993 37.6673C92.77 37.3782 92.5684 37.1537 92.2945 36.994C92.0282 36.8342 91.6821 36.7543 91.256 36.7543C90.8909 36.7543 90.5751 36.819 90.3089 36.9483C90.0426 37.07 89.8372 37.2488 89.6926 37.4847C89.5481 37.7129 89.4758 37.983 89.4758 38.2949H86.1893C86.1893 37.77 86.311 37.2717 86.5545 36.8C86.7979 36.3283 87.1517 35.9137 87.6157 35.5561C88.0798 35.1909 88.6314 34.9056 89.2704 34.7002C89.9171 34.4948 90.6398 34.3921 91.4386 34.3921C92.3972 34.3921 93.2493 34.5519 93.9948 34.8714C94.7404 35.1909 95.3262 35.6702 95.7522 36.3093C96.1858 36.9483 96.4027 37.7471 96.4027 38.7057V43.9893C96.4027 44.6664 96.4445 45.2217 96.5282 45.6554C96.6119 46.0814 96.7336 46.4542 96.8934 46.7737V46.9677H93.5726C93.4128 46.633 93.2911 46.2145 93.2074 45.7124C93.1313 45.2027 93.0933 44.693 93.0933 44.1833ZM93.5269 39.4475L93.5498 41.3076H91.7125C91.2789 41.3076 90.9023 41.357 90.5827 41.4559C90.2632 41.5548 90.0008 41.6956 89.7953 41.8781C89.5899 42.0531 89.4378 42.2585 89.3389 42.4944C89.2476 42.7302 89.2019 42.9889 89.2019 43.2704C89.2019 43.5518 89.2666 43.8067 89.3959 44.0349C89.5253 44.2556 89.7117 44.4305 89.9551 44.5599C90.1986 44.6816 90.4838 44.7424 90.811 44.7424C91.3055 44.7424 91.7353 44.6435 92.1005 44.4457C92.4657 44.2479 92.7472 44.0045 92.945 43.7154C93.1504 43.4263 93.2569 43.1524 93.2645 42.8938L94.1318 44.286C94.01 44.5979 93.8427 44.9212 93.6296 45.256C93.4242 45.5907 93.1618 45.9064 92.8422 46.2031C92.5227 46.4922 92.1385 46.7319 91.6897 46.9221C91.2408 47.1047 90.7083 47.1959 90.0921 47.1959C89.3085 47.1959 88.5971 47.04 87.9581 46.7281C87.3266 46.4085 86.8245 45.9711 86.4517 45.4157C86.0866 44.8528 85.904 44.2137 85.904 43.4986C85.904 42.8519 86.0257 42.2775 86.2692 41.7754C86.5126 41.2733 86.8702 40.8511 87.3419 40.5087C87.8211 40.1588 88.4183 39.8963 89.1335 39.7213C89.8486 39.5388 90.6778 39.4475 91.6212 39.4475H93.5269ZM102.154 37.2564V46.9677H98.8676V34.6204H101.949L102.154 37.2564ZM101.675 40.3604H100.785C100.785 39.4475 100.903 38.6258 101.138 37.8955C101.374 37.1575 101.705 36.5299 102.131 36.0126C102.557 35.4876 103.063 35.0882 103.649 34.8144C104.242 34.5329 104.904 34.3921 105.635 34.3921C106.213 34.3921 106.742 34.4758 107.221 34.6432C107.7 34.8105 108.111 35.0768 108.453 35.442C108.803 35.8072 109.07 36.2903 109.252 36.8913C109.442 37.4923 109.537 38.2264 109.537 39.0937V46.9677H106.228V39.0823C106.228 38.5345 106.152 38.1085 106 37.8042C105.848 37.4999 105.623 37.2869 105.327 37.1651C105.037 37.0358 104.68 36.9711 104.254 36.9711C103.813 36.9711 103.428 37.0586 103.101 37.2336C102.782 37.4086 102.515 37.652 102.302 37.964C102.097 38.2683 101.941 38.6258 101.835 39.0366C101.728 39.4475 101.675 39.8887 101.675 40.3604ZM118.701 44.1833V38.6829C118.701 38.2873 118.636 37.9487 118.507 37.6673C118.378 37.3782 118.176 37.1537 117.902 36.994C117.636 36.8342 117.29 36.7543 116.864 36.7543C116.499 36.7543 116.183 36.819 115.917 36.9483C115.65 37.07 115.445 37.2488 115.3 37.4847C115.156 37.7129 115.083 37.983 115.083 38.2949H111.797C111.797 37.77 111.919 37.2717 112.162 36.8C112.406 36.3283 112.759 35.9137 113.223 35.5561C113.687 35.1909 114.239 34.9056 114.878 34.7002C115.525 34.4948 116.247 34.3921 117.046 34.3921C118.005 34.3921 118.857 34.5519 119.602 34.8714C120.348 35.1909 120.934 35.6702 121.36 36.3093C121.793 36.9483 122.01 37.7471 122.01 38.7057V43.9893C122.01 44.6664 122.052 45.2217 122.136 45.6554C122.22 46.0814 122.341 46.4542 122.501 46.7737V46.9677H119.18C119.02 46.633 118.899 46.2145 118.815 45.7124C118.739 45.2027 118.701 44.693 118.701 44.1833ZM119.135 39.4475L119.157 41.3076H117.32C116.887 41.3076 116.51 41.357 116.19 41.4559C115.871 41.5548 115.608 41.6956 115.403 41.8781C115.198 42.0531 115.045 42.2585 114.947 42.4944C114.855 42.7302 114.81 42.9889 114.81 43.2704C114.81 43.5518 114.874 43.8067 115.004 44.0349C115.133 44.2556 115.319 44.4305 115.563 44.5599C115.806 44.6816 116.091 44.7424 116.419 44.7424C116.913 44.7424 117.343 44.6435 117.708 44.4457C118.073 44.2479 118.355 44.0045 118.553 43.7154C118.758 43.4263 118.865 43.1524 118.872 42.8938L119.739 44.286C119.618 44.5979 119.45 44.9212 119.237 45.256C119.032 45.5907 118.769 45.9064 118.45 46.2031C118.13 46.4922 117.746 46.7319 117.297 46.9221C116.848 47.1047 116.316 47.1959 115.7 47.1959C114.916 47.1959 114.205 47.04 113.566 46.7281C112.934 46.4085 112.432 45.9711 112.059 45.4157C111.694 44.8528 111.512 44.2137 111.512 43.4986C111.512 42.8519 111.633 42.2775 111.877 41.7754C112.12 41.2733 112.478 40.8511 112.949 40.5087C113.429 40.1588 114.026 39.8963 114.741 39.7213C115.456 39.5388 116.285 39.4475 117.229 39.4475H119.135Z" fill="#FDFFF7"/>
<g clip-path="url(#clip0_3_206)">
<path d="M23.8037 47.8239C23.8037 47.8239 39.8172 39.8172 39.8172 27.8071V13.7954L23.8037 7.79031L7.79028 13.7954V27.8071C7.79028 39.8172 23.8037 47.8239 23.8037 47.8239Z" stroke="#71A9F7" stroke-width="4.00336" stroke-linecap="round" stroke-linejoin="round"/>
</g>
<defs>
<clipPath id="clip0_3_206">
<rect width="48.0403" height="48.0403" fill="white"/>
</clipPath>
</defs>
</svg>
